<mxfile host="app.diagrams.net" agent="Mozilla/5.0 (Windows NT 10.0; Win64; x64) AppleWebKit/537.36 (KHTML, like Gecko) Chrome/140.0.0.0 Safari/537.36 Edg/140.0.0.0" version="28.2.5">
  <diagram name="Page-1" id="ZJEoXZUPB2umNobvN2hT">
    <mxGraphModel dx="5020" dy="-256" grid="1" gridSize="10" guides="1" tooltips="1" connect="1" arrows="1" fold="1" page="1" pageScale="1" pageWidth="850" pageHeight="1100" math="0" shadow="0">
      <root>
        <mxCell id="0" />
        <mxCell id="1" parent="0" />
        <UserObject label="" plantUmlData="{&quot;data&quot;:&quot;@startuml\n&#39; Diagram Title\ntitle Collaboration Diagram - Game Sonnet (User + Admin)\n\n&#39; Style Enhancements\nskinparam participant {\n    BackgroundColor LightBlue\n    BorderColor Blue\n}\nskinparam actor {\n    BackgroundColor LightGreen\n    BorderColor Green\n}\nskinparam database {\n    BackgroundColor LightYellow\n    BorderColor Orange\n}\nskinparam sequence {\n    GroupHeaderFontColor #555555\n    LifeLineBorderColor #555555\n}\n\n&#39; Enable automatic hierarchical numbering for collaboration style\nautonumber \&quot;&lt;b&gt;0.&lt;/b&gt;\&quot;\n\n&#39; Define Actors and Participants (Object Organization)\nactor User\nactor Admin\nparticipant \&quot;React UI\\n(Frontend)\&quot; as UI\nparticipant \&quot;Express Backend\\n(Server)\&quot; as Backend\nparticipant \&quot;RAWG API\\n(External Service)\&quot; as RAWG\ndatabase \&quot;MongoDB Atlas\\n(Database)\&quot; as DB\n\n== Home Page Flow ==\nUser -&gt; UI : 1. Open Home Page\nactivate UI\nUI -&gt; RAWG : 1.1. Fetch Trending Games\nUI -&gt; DB : 1.2. Fetch Suggested Games\nUI -&gt; User : 1.3. Display Home with Games\ndeactivate UI\n\n== Login/Signup Flow ==\nUser -&gt; UI : 2. Click Login/Signup\nactivate UI\nUI -&gt; Backend : 2.1. Send Credentials\nactivate Backend\nBackend -&gt; DB : 2.1.1. Validate / Save User\nactivate DB\nDB --&gt; Backend : 2.1.2. Return Success/Failure\ndeactivate DB\nBackend --&gt; UI : 2.2. Auth Success\ndeactivate Backend\nUI -&gt; User : 2.3. Show Logged-in State\ndeactivate UI\n\n== Add Game Flow ==\nUser -&gt; UI : 3. Suggest a Game (enter name)\nactivate UI\nUI -&gt; Backend : 3.1. Check if Game Exists in DB\nactivate Backend\nBackend -&gt; DB : 3.1.1. Query for game by name/slug\n\nalt Game Already Exists\n    DB --&gt; Backend : 3.1.1.1. Return Existing Game\n    Backend -&gt; DB : 3.1.1.2. Update &#39;addedBy&#39; field with username\n    DB --&gt; Backend : 3.1.1.3. Confirm Update\nelse Game Does Not Exist\n    Backend -&gt; RAWG : 3.1.2. Request Game Details from API\n    alt RAWG API Responds with Data\n        RAWG --&gt; Backend : 3.1.2.1. Return Game Data\n        Backend -&gt; DB : 3.1.2.2. Save Data to &#39;PendingGames&#39; Collection\n        DB --&gt; Backend : 3.1.2.3. Confirm Insert\n    else RAWG API Fails or No Data Found\n        Backend --&gt; UI : 3.1.2.4. Notify UI of failure\n        UI -&gt; User : 3.1.2.5. Prompt for Manual Submission\n        User -&gt; UI : 3.1.2.6. Enter Game Details Manually\n        UI -&gt; Backend : 3.1.2.7. Send Manual Game Data\n        Backend -&gt; DB : 3.1.2.8. Insert Manual Data into &#39;PendingGames&#39;\n        DB --&gt; Backend : 3.1.2.9. Confirm Insert\n    end\nend\nBackend --&gt; UI : 3.2. Send Toast Notification (\&quot;Submitted for approval!\&quot;)\ndeactivate Backend\nUI -&gt; User : 3.3. Display Notification\ndeactivate UI\n\n\n== Admin Approval Flow ==\nAdmin -&gt; UI : 4. Visit Admin Page\nactivate UI\nUI -&gt; Backend : 4.1. Request Pending Games\nactivate Backend\nBackend -&gt; DB : 4.1.1. Fetch all with status=&#39;pending&#39;\nDB --&gt; Backend : 4.1.2. Return Pending Games List\nBackend --&gt; UI : 4.2. Display Pending List\ndeactivate Backend\n\nAdmin -&gt; UI : 4.3. Approve or Reject a Game\nUI -&gt; Backend : 4.4. Send Update Request\nactivate Backend\nalt Admin Approves Game\n    Backend -&gt; DB : 4.4.1. Add to &#39;Games&#39; collection \nelse Admin Rejects Game\n    Backend -&gt; DB : 4.4.2. Update status to &#39;rejected&#39; in &#39;PendingGames&#39;\nend\nDB --&gt; Backend : 4.5. Confirm Update\nBackend --&gt; UI : 4.6. Return Action Result\ndeactivate Backend\nUI -&gt; Admin : 4.7. Display Update Result\ndeactivate UI\n\n== Game Details &amp; Reviews Flow ==\nUser -&gt; UI : 5. Select a Game Card\nactivate UI\nUI -&gt; RAWG : 5.1. Fetch Rich Details (if API integrated)\nUI -&gt; DB : 5.2. Fetch Game Data and Reviews from DB\nUI -&gt; User : 5.3. Show Game Details and Reviews\ndeactivate UI\n\nUser -&gt; UI : 6. Submit a Review\nactivate UI\nUI -&gt; Backend : 6.1. Send Review Data (rating, comment)\nactivate Backend\nBackend -&gt; DB : 6.1.1. Find Game and Push New Review\nDB --&gt; Backend : 6.1.2. Confirm Save (OK)\nBackend --&gt; UI : 6.2. Return Updated List of Reviews\ndeactivate Backend\nUI -&gt; User : 6.3. Display Updated Reviews\ndeactivate UI\n\n@enduml&quot;,&quot;format&quot;:&quot;svg&quot;}" id="gLF575Pad3Lh8d0Lt4tT-233">
          <mxCell style="shape=image;noLabel=1;verticalAlign=top;aspect=fixed;imageAspect=0;image=data:image/svg+xml,PHN2ZyB4bWxucz0iaHR0cDovL3d3dy53My5vcmcvMjAwMC9zdmciIHhtbG5zOnhsaW5rPSJodHRwOi8vd3d3LnczLm9yZy8xOTk5L3hsaW5rIiBjb250ZW50U3R5bGVUeXBlPSJ0ZXh0L2NzcyIgZGF0YS1kaWFncmFtLXR5cGU9IlNFUVVFTkNFIiBoZWlnaHQ9IjE5NjVweCIgcHJlc2VydmVBc3BlY3RSYXRpbz0ibm9uZSIgc3R5bGU9IndpZHRoOjEyNjJweDtoZWlnaHQ6MTk2NXB4O2JhY2tncm91bmQ6I0ZGRkZGRjsiIHZlcnNpb249IjEuMSIgdmlld0JveD0iMCAwIDEyNjIgMTk2NSIgd2lkdGg9IjEyNjJweCIgem9vbUFuZFBhbj0ibWFnbmlmeSI+PHRpdGxlPkNvbGxhYm9yYXRpb24gRGlhZ3JhbSAtIEdhbWUgU29ubmV0IChVc2VyICsgQWRtaW4pPC90aXRsZT48ZGVmcy8+PGc+PHRleHQgZmlsbD0iIzAwMDAwMCIgZm9udC1mYW1pbHk9InNhbnMtc2VyaWYiIGZvbnQtc2l6ZT0iMTQiIGZvbnQtd2VpZ2h0PSJib2xkIiBsZW5ndGhBZGp1c3Q9InNwYWNpbmciIHRleHRMZW5ndGg9IjM1MCIgeD0iNDUyIiB5PSIyOC4yMzQ0Ij5Db2xsYWJvcmF0aW9uIERpYWdyYW0gLSBHYW1lIFNvbm5ldCAoVXNlciArIEFkbWluKTwvdGV4dD48Zz48dGl0bGU+UmVhY3QgVUk8L3RpdGxlPjxyZWN0IGZpbGw9IiNGRkZGRkYiIGhlaWdodD0iODMuNzQyMiIgc3R5bGU9InN0cm9rZTojNTU1NTU1O3N0cm9rZS13aWR0aDoxOyIgd2lkdGg9IjEwIiB4PSIzMzUiIHk9IjE4OC43ODEzIi8+PC9nPjxnPjx0aXRsZT5SZWFjdCBVSTwvdGl0bGU+PHJlY3QgZmlsbD0iI0ZGRkZGRiIgaGVpZ2h0PSIxMzkuNTcwMyIgc3R5bGU9InN0cm9rZTojNTU1NTU1O3N0cm9rZS13aWR0aDoxOyIgd2lkdGg9IjEwIiB4PSIzMzUiIHk9IjM0Mi4zNTE2Ii8+PC9nPjxnPjx0aXRsZT5SZWFjdCBVSTwvdGl0bGU+PHJlY3QgZmlsbD0iI0ZGRkZGRiIgaGVpZ2h0PSI1NjEuOTE0MSIgc3R5bGU9InN0cm9rZTojNTU1NTU1O3N0cm9rZS13aWR0aDoxOyIgd2lkdGg9IjEwIiB4PSIzMzUiIHk9IjU1MS43NSIvPjwvZz48Zz48dGl0bGU+UmVhY3QgVUk8L3RpdGxlPjxyZWN0IGZpbGw9IiNGRkZGRkYiIGhlaWdodD0iMzUwLjc0MjIiIHN0eWxlPSJzdHJva2U6IzU1NTU1NTtzdHJva2Utd2lkdGg6MTsiIHdpZHRoPSIxMCIgeD0iMzM1IiB5PSIxMTgzLjQ5MjIiLz48L2c+PGc+PHRpdGxlPlJlYWN0IFVJPC90aXRsZT48cmVjdCBmaWxsPSIjRkZGRkZGIiBoZWlnaHQ9IjgzLjc0MjIiIHN0eWxlPSJzdHJva2U6IzU1NTU1NTtzdHJva2Utd2lkdGg6MTsiIHdpZHRoPSIxMCIgeD0iMzM1IiB5PSIxNjA0LjA2MjUiLz48L2c+PGc+PHRpdGxlPlJlYWN0IFVJPC90aXRsZT48cmVjdCBmaWxsPSIjRkZGRkZGIiBoZWlnaHQ9IjEzOS41NzAzIiBzdHlsZT0ic3Ryb2tlOiM1NTU1NTU7c3Ryb2tlLXdpZHRoOjE7IiB3aWR0aD0iMTAiIHg9IjMzNSIgeT0iMTcxNS43MTg4Ii8+PC9nPjxnPjx0aXRsZT5FeHByZXNzIEJhY2tlbmQ8L3RpdGxlPjxyZWN0IGZpbGw9IiNGRkZGRkYiIGhlaWdodD0iODMuNzQyMiIgc3R5bGU9InN0cm9rZTojNTU1NTU1O3N0cm9rZS13aWR0aDoxOyIgd2lkdGg9IjEwIiB4PSI3NTYuNSIgeT0iMzcwLjI2NTYiLz48L2c+PGc+PHRpdGxlPkV4cHJlc3MgQmFja2VuZDwvdGl0bGU+PHJlY3QgZmlsbD0iI0ZGRkZGRiIgaGVpZ2h0PSI1MDYuMDg1OSIgc3R5bGU9InN0cm9rZTojNTU1NTU1O3N0cm9rZS13aWR0aDoxOyIgd2lkdGg9IjEwIiB4PSI3NTYuNSIgeT0iNTc5LjY2NDEiLz48L2c+PGc+PHRpdGxlPkV4cHJlc3MgQmFja2VuZDwvdGl0bGU+PHJlY3QgZmlsbD0iI0ZGRkZGRiIgaGVpZ2h0PSI4My43NDIyIiBzdHlsZT0ic3Ryb2tlOiM1NTU1NTU7c3Ryb2tlLXdpZHRoOjE7IiB3aWR0aD0iMTAiIHg9Ijc1Ni41IiB5PSIxMjExLjQwNjMiLz48L2c+PGc+PHRpdGxlPkV4cHJlc3MgQmFja2VuZDwvdGl0bGU+PHJlY3QgZmlsbD0iI0ZGRkZGRiIgaGVpZ2h0PSIxNTUuMzQzOCIgc3R5bGU9InN0cm9rZTojNTU1NTU1O3N0cm9rZS13aWR0aDoxOyIgd2lkdGg9IjEwIiB4PSI3NTYuNSIgeT0iMTM1MC45NzY2Ii8+PC9nPjxnPjx0aXRsZT5FeHByZXNzIEJhY2tlbmQ8L3RpdGxlPjxyZWN0IGZpbGw9IiNGRkZGRkYiIGhlaWdodD0iODMuNzQyMiIgc3R5bGU9InN0cm9rZTojNTU1NTU1O3N0cm9rZS13aWR0aDoxOyIgd2lkdGg9IjEwIiB4PSI3NTYuNSIgeT0iMTc0My42MzI4Ii8+PC9nPjxnPjx0aXRsZT5Nb25nb0RCIEF0bGFzPC90aXRsZT48cmVjdCBmaWxsPSIjRkZGRkZGIiBoZWlnaHQ9IjI3LjkxNDEiIHN0eWxlPSJzdHJva2U6IzU1NTU1NTtzdHJva2Utd2lkdGg6MTsiIHdpZHRoPSIxMCIgeD0iMTE3MS41IiB5PSIzOTguMTc5NyIvPjwvZz48cmVjdCBmaWxsPSJub25lIiBoZWlnaHQ9IjQzNi4yNTc4IiBzdHlsZT0ic3Ryb2tlOiMwMDAwMDA7c3Ryb2tlLXdpZHRoOjEuNTsiIHdpZHRoPSIxMjM1IiB4PSIxMCIgeT0iNjIyLjU3ODEiLz48cmVjdCBmaWxsPSJub25lIiBoZWlnaHQ9IjI4MC45MTQxIiBzdHlsZT0ic3Ryb2tlOiMwMDAwMDA7c3Ryb2tlLXdpZHRoOjEuNTsiIHdpZHRoPSIxMjE1IiB4PSIyMCIgeT0iNzcwLjkyMTkiLz48cmVjdCBmaWxsPSJub25lIiBoZWlnaHQ9Ijg1LjUxNTYiIHN0eWxlPSJzdHJva2U6IzAwMDAwMDtzdHJva2Utd2lkdGg6MS41OyIgd2lkdGg9IjU0MyIgeD0iNjkyIiB5PSIxMzY1Ljk3NjYiLz48Zz48dGl0bGU+VXNlcjwvdGl0bGU+PHJlY3QgZmlsbD0iIzAwMDAwMCIgZmlsbC1vcGFjaXR5PSIwLjAwMDAwIiBoZWlnaHQ9IjE3NTYuMzM1OSIgd2lkdGg9IjgiIHg9IjQzIiB5PSIxMTYuOTUzMSIvPjxsaW5lIHN0eWxlPSJzdHJva2U6IzU1NTU1NTtzdHJva2Utd2lkdGg6MC41O3N0cm9rZS1kYXNoYXJyYXk6NS4wLDUuMDsiIHgxPSI0NyIgeDI9IjQ3IiB5MT0iMTE2Ljk1MzEiIHkyPSIxODczLjI4OTEiLz48L2c+PGc+PHRpdGxlPkFkbWluPC90aXRsZT48cmVjdCBmaWxsPSIjMDAwMDAwIiBmaWxsLW9wYWNpdHk9IjAuMDAwMDAiIGhlaWdodD0iMTc1Ni4zMzU5IiB3aWR0aD0iOCIgeD0iOTAuNSIgeT0iMTE2Ljk1MzEiLz48bGluZSBzdHlsZT0ic3Ryb2tlOiM1NTU1NTU7c3Ryb2tlLXdpZHRoOjAuNTtzdHJva2UtZGFzaGFycmF5OjUuMCw1LjA7IiB4MT0iOTQiIHgyPSI5NCIgeTE9IjExNi45NTMxIiB5Mj0iMTg3My4yODkxIi8+PC9nPjxnPjx0aXRsZT5SZWFjdCBVSTwvdGl0bGU+PHJlY3QgZmlsbD0iIzAwMDAwMCIgZmlsbC1vcGFjaXR5PSIwLjAwMDAwIiBoZWlnaHQ9IjE3NTYuMzM1OSIgd2lkdGg9IjgiIHg9IjMzNiIgeT0iMTE2Ljk1MzEiLz48bGluZSBzdHlsZT0ic3Ryb2tlOiM1NTU1NTU7c3Ryb2tlLXdpZHRoOjAuNTtzdHJva2UtZGFzaGFycmF5OjUuMCw1LjA7IiB4MT0iMzQwIiB4Mj0iMzQwIiB5MT0iMTE2Ljk1MzEiIHkyPSIxODczLjI4OTEiLz48L2c+PGc+PHRpdGxlPkV4cHJlc3MgQmFja2VuZDwvdGl0bGU+PHJlY3QgZmlsbD0iIzAwMDAwMCIgZmlsbC1vcGFjaXR5PSIwLjAwMDAwIiBoZWlnaHQ9IjE3NTYuMzM1OSIgd2lkdGg9IjgiIHg9Ijc1Ny41IiB5PSIxMTYuOTUzMSIvPjxsaW5lIHN0eWxlPSJzdHJva2U6IzU1NTU1NTtzdHJva2Utd2lkdGg6MC41O3N0cm9rZS1kYXNoYXJyYXk6NS4wLDUuMDsiIHgxPSI3NjEiIHgyPSI3NjEiIHkxPSIxMTYuOTUzMSIgeTI9IjE4NzMuMjg5MSIvPjwvZz48Zz48dGl0bGU+UkFXRyBBUEk8L3RpdGxlPjxyZWN0IGZpbGw9IiMwMDAwMDAiIGZpbGwtb3BhY2l0eT0iMC4wMDAwMCIgaGVpZ2h0PSIxNzU2LjMzNTkiIHdpZHRoPSI4IiB4PSIxMDQ0IiB5PSIxMTYuOTUzMSIvPjxsaW5lIHN0eWxlPSJzdHJva2U6IzU1NTU1NTtzdHJva2Utd2lkdGg6MC41O3N0cm9rZS1kYXNoYXJyYXk6NS4wLDUuMDsiIHgxPSIxMDQ4IiB4Mj0iMTA0OCIgeTE9IjExNi45NTMxIiB5Mj0iMTg3My4yODkxIi8+PC9nPjxnPjx0aXRsZT5Nb25nb0RCIEF0bGFzPC90aXRsZT48cmVjdCBmaWxsPSIjMDAwMDAwIiBmaWxsLW9wYWNpdHk9IjAuMDAwMDAiIGhlaWdodD0iMTc1Ni4zMzU5IiB3aWR0aD0iOCIgeD0iMTE3Mi41IiB5PSIxMTYuOTUzMSIvPjxsaW5lIHN0eWxlPSJzdHJva2U6IzU1NTU1NTtzdHJva2Utd2lkdGg6MC41O3N0cm9rZS1kYXNoYXJyYXk6NS4wLDUuMDsiIHgxPSIxMTc2IiB4Mj0iMTE3NiIgeTE9IjExNi45NTMxIiB5Mj0iMTg3My4yODkxIi8+PC9nPjxnIGNsYXNzPSJwYXJ0aWNpcGFudCBwYXJ0aWNpcGFudC1oZWFkIiBkYXRhLXBhcnRpY2lwYW50PSJVc2VyIj48dGV4dCBmaWxsPSIjMDAwMDAwIiBmb250LWZhbWlseT0ic2Fucy1zZXJpZiIgZm9udC1zaXplPSIxNCIgbGVuZ3RoQWRqdXN0PSJzcGFjaW5nIiB0ZXh0TGVuZ3RoPSIyOCIgeD0iMzAiIHk9IjExNS4yMDMxIj5Vc2VyPC90ZXh0PjxlbGxpcHNlIGN4PSI0NyIgY3k9IjUwLjQ2ODgiIGZpbGw9IiM5MEVFOTAiIHJ4PSI4IiByeT0iOCIgc3R5bGU9InN0cm9rZTojMDA4MDAwO3N0cm9rZS13aWR0aDowLjU7Ii8+PHBhdGggZD0iTTQ3LDU4LjQ2ODggTDQ3LDg1LjQ2ODggTTM0LDY2LjQ2ODggTDYwLDY2LjQ2ODggTTQ3LDg1LjQ2ODggTDM0LDEwMC40Njg4IE00Nyw4NS40Njg4IEw2MCwxMDAuNDY4OCIgZmlsbD0ibm9uZSIgc3R5bGU9InN0cm9rZTojMDA4MDAwO3N0cm9rZS13aWR0aDowLjU7Ii8+PC9nPjxnIGNsYXNzPSJwYXJ0aWNpcGFudCBwYXJ0aWNpcGFudC10YWlsIiBkYXRhLXBhcnRpY2lwYW50PSJVc2VyIj48dGV4dCBmaWxsPSIjMDAwMDAwIiBmb250LWZhbWlseT0ic2Fucy1zZXJpZiIgZm9udC1zaXplPSIxNCIgbGVuZ3RoQWRqdXN0PSJzcGFjaW5nIiB0ZXh0TGVuZ3RoPSIyOCIgeD0iMzAiIHk9IjE4ODUuNTIzNCI+VXNlcjwvdGV4dD48ZWxsaXBzZSBjeD0iNDciIGN5PSIxODk1Ljc3MzQiIGZpbGw9IiM5MEVFOTAiIHJ4PSI4IiByeT0iOCIgc3R5bGU9InN0cm9rZTojMDA4MDAwO3N0cm9rZS13aWR0aDowLjU7Ii8+PHBhdGggZD0iTTQ3LDE5MDMuNzczNCBMNDcsMTkzMC43NzM0IE0zNCwxOTExLjc3MzQgTDYwLDE5MTEuNzczNCBNNDcsMTkzMC43NzM0IEwzNCwxOTQ1Ljc3MzQgTTQ3LDE5MzAuNzczNCBMNjAsMTk0NS43NzM0IiBmaWxsPSJub25lIiBzdHlsZT0ic3Ryb2tlOiMwMDgwMDA7c3Ryb2tlLXdpZHRoOjAuNTsiLz48L2c+PGcgY2xhc3M9InBhcnRpY2lwYW50IHBhcnRpY2lwYW50LWhlYWQiIGRhdGEtcGFydGljaXBhbnQ9IkFkbWluIj48dGV4dCBmaWxsPSIjMDAwMDAwIiBmb250LWZhbWlseT0ic2Fucy1zZXJpZiIgZm9udC1zaXplPSIxNCIgbGVuZ3RoQWRqdXN0PSJzcGFjaW5nIiB0ZXh0TGVuZ3RoPSIzNSIgeD0iNzQiIHk9IjExNS4yMDMxIj5BZG1pbjwvdGV4dD48ZWxsaXBzZSBjeD0iOTQuNSIgY3k9IjUwLjQ2ODgiIGZpbGw9IiM5MEVFOTAiIHJ4PSI4IiByeT0iOCIgc3R5bGU9InN0cm9rZTojMDA4MDAwO3N0cm9rZS13aWR0aDowLjU7Ii8+PHBhdGggZD0iTTk0LjUsNTguNDY4OCBMOTQuNSw4NS40Njg4IE04MS41LDY2LjQ2ODggTDEwNy41LDY2LjQ2ODggTTk0LjUsODUuNDY4OCBMODEuNSwxMDAuNDY4OCBNOTQuNSw4NS40Njg4IEwxMDcuNSwxMDAuNDY4OCIgZmlsbD0ibm9uZSIgc3R5bGU9InN0cm9rZTojMDA4MDAwO3N0cm9rZS13aWR0aDowLjU7Ii8+PC9nPjxnIGNsYXNzPSJwYXJ0aWNpcGFudCBwYXJ0aWNpcGFudC10YWlsIiBkYXRhLXBhcnRpY2lwYW50PSJBZG1pbiI+PHRleHQgZmlsbD0iIzAwMDAwMCIgZm9udC1mYW1pbHk9InNhbnMtc2VyaWYiIGZvbnQtc2l6ZT0iMTQiIGxlbmd0aEFkanVzdD0ic3BhY2luZyIgdGV4dExlbmd0aD0iMzUiIHg9Ijc0IiB5PSIxODg1LjUyMzQiPkFkbWluPC90ZXh0PjxlbGxpcHNlIGN4PSI5NC41IiBjeT0iMTg5NS43NzM0IiBmaWxsPSIjOTBFRTkwIiByeD0iOCIgcnk9IjgiIHN0eWxlPSJzdHJva2U6IzAwODAwMDtzdHJva2Utd2lkdGg6MC41OyIvPjxwYXRoIGQ9Ik05NC41LDE5MDMuNzczNCBMOTQuNSwxOTMwLjc3MzQgTTgxLjUsMTkxMS43NzM0IEwxMDcuNSwxOTExLjc3MzQgTTk0LjUsMTkzMC43NzM0IEw4MS41LDE5NDUuNzczNCBNOTQuNSwxOTMwLjc3MzQgTDEwNy41LDE5NDUuNzczNCIgZmlsbD0ibm9uZSIgc3R5bGU9InN0cm9rZTojMDA4MDAwO3N0cm9rZS13aWR0aDowLjU7Ii8+PC9nPjxnIGNsYXNzPSJwYXJ0aWNpcGFudCBwYXJ0aWNpcGFudC1oZWFkIiBkYXRhLXBhcnRpY2lwYW50PSJVSSI+PHJlY3QgZmlsbD0iI0FERDhFNiIgaGVpZ2h0PSI0My45Njg4IiByeD0iMi41IiByeT0iMi41IiBzdHlsZT0ic3Ryb2tlOiMwMDAwRkY7c3Ryb2tlLXdpZHRoOjAuNTsiIHdpZHRoPSI4NCIgeD0iMjk4IiB5PSI3MS45ODQ0Ii8+PHRleHQgZmlsbD0iIzAwMDAwMCIgZm9udC1mYW1pbHk9InNhbnMtc2VyaWYiIGZvbnQtc2l6ZT0iMTQiIGxlbmd0aEFkanVzdD0ic3BhY2luZyIgdGV4dExlbmd0aD0iNTYiIHg9IjMxMiIgeT0iOTIuMjE4OCI+UmVhY3QgVUk8L3RleHQ+PHRleHQgZmlsbD0iIzAwMDAwMCIgZm9udC1mYW1pbHk9InNhbnMtc2VyaWYiIGZvbnQtc2l6ZT0iMTQiIGxlbmd0aEFkanVzdD0ic3BhY2luZyIgdGV4dExlbmd0aD0iNzAiIHg9IjMwNSIgeT0iMTA3LjIwMzEiPihGcm9udGVuZCk8L3RleHQ+PC9nPjxnIGNsYXNzPSJwYXJ0aWNpcGFudCBwYXJ0aWNpcGFudC10YWlsIiBkYXRhLXBhcnRpY2lwYW50PSJVSSI+PHJlY3QgZmlsbD0iI0FERDhFNiIgaGVpZ2h0PSI0My45Njg4IiByeD0iMi41IiByeT0iMi41IiBzdHlsZT0ic3Ryb2tlOiMwMDAwRkY7c3Ryb2tlLXdpZHRoOjAuNTsiIHdpZHRoPSI4NCIgeD0iMjk4IiB5PSIxODcyLjI4OTEiLz48dGV4dCBmaWxsPSIjMDAwMDAwIiBmb250LWZhbWlseT0ic2Fucy1zZXJpZiIgZm9udC1zaXplPSIxNCIgbGVuZ3RoQWRqdXN0PSJzcGFjaW5nIiB0ZXh0TGVuZ3RoPSI1NiIgeD0iMzEyIiB5PSIxODkyLjUyMzQiPlJlYWN0IFVJPC90ZXh0Pjx0ZXh0IGZpbGw9IiMwMDAwMDAiIGZvbnQtZmFtaWx5PSJzYW5zLXNlcmlmIiBmb250LXNpemU9IjE0IiBsZW5ndGhBZGp1c3Q9InNwYWNpbmciIHRleHRMZW5ndGg9IjcwIiB4PSIzMDUiIHk9IjE5MDcuNTA3OCI+KEZyb250ZW5kKTwvdGV4dD48L2c+PGcgY2xhc3M9InBhcnRpY2lwYW50IHBhcnRpY2lwYW50LWhlYWQiIGRhdGEtcGFydGljaXBhbnQ9IkJhY2tlbmQiPjxyZWN0IGZpbGw9IiNBREQ4RTYiIGhlaWdodD0iNDMuOTY4OCIgcng9IjIuNSIgcnk9IjIuNSIgc3R5bGU9InN0cm9rZTojMDAwMEZGO3N0cm9rZS13aWR0aDowLjU7IiB3aWR0aD0iMTE5IiB4PSI3MDIiIHk9IjcxLjk4NDQiLz48dGV4dCBmaWxsPSIjMDAwMDAwIiBmb250LWZhbWlseT0ic2Fucy1zZXJpZiIgZm9udC1zaXplPSIxNCIgbGVuZ3RoQWRqdXN0PSJzcGFjaW5nIiB0ZXh0TGVuZ3RoPSIxMDUiIHg9IjcwOSIgeT0iOTIuMjE4OCI+RXhwcmVzcyBCYWNrZW5kPC90ZXh0Pjx0ZXh0IGZpbGw9IiMwMDAwMDAiIGZvbnQtZmFtaWx5PSJzYW5zLXNlcmlmIiBmb250LXNpemU9IjE0IiBsZW5ndGhBZGp1c3Q9InNwYWNpbmciIHRleHRMZW5ndGg9IjU2IiB4PSI3MzMuNSIgeT0iMTA3LjIwMzEiPihTZXJ2ZXIpPC90ZXh0PjwvZz48ZyBjbGFzcz0icGFydGljaXBhbnQgcGFydGljaXBhbnQtdGFpbCIgZGF0YS1wYXJ0aWNpcGFudD0iQmFja2VuZCI+PHJlY3QgZmlsbD0iI0FERDhFNiIgaGVpZ2h0PSI0My45Njg4IiByeD0iMi41IiByeT0iMi41IiBzdHlsZT0ic3Ryb2tlOiMwMDAwRkY7c3Ryb2tlLXdpZHRoOjAuNTsiIHdpZHRoPSIxMTkiIHg9IjcwMiIgeT0iMTg3Mi4yODkxIi8+PHRleHQgZmlsbD0iIzAwMDAwMCIgZm9udC1mYW1pbHk9InNhbnMtc2VyaWYiIGZvbnQtc2l6ZT0iMTQiIGxlbmd0aEFkanVzdD0ic3BhY2luZyIgdGV4dExlbmd0aD0iMTA1IiB4PSI3MDkiIHk9IjE4OTIuNTIzNCI+RXhwcmVzcyBCYWNrZW5kPC90ZXh0Pjx0ZXh0IGZpbGw9IiMwMDAwMDAiIGZvbnQtZmFtaWx5PSJzYW5zLXNlcmlmIiBmb250LXNpemU9IjE0IiBsZW5ndGhBZGp1c3Q9InNwYWNpbmciIHRleHRMZW5ndGg9IjU2IiB4PSI3MzMuNSIgeT0iMTkwNy41MDc4Ij4oU2VydmVyKTwvdGV4dD48L2c+PGcgY2xhc3M9InBhcnRpY2lwYW50IHBhcnRpY2lwYW50LWhlYWQiIGRhdGEtcGFydGljaXBhbnQ9IlJBV0ciPjxyZWN0IGZpbGw9IiNBREQ4RTYiIGhlaWdodD0iNDMuOTY4OCIgcng9IjIuNSIgcnk9IjIuNSIgc3R5bGU9InN0cm9rZTojMDAwMEZGO3N0cm9rZS13aWR0aDowLjU7IiB3aWR0aD0iMTQwIiB4PSI5NzgiIHk9IjcxLjk4NDQiLz48dGV4dCBmaWxsPSIjMDAwMDAwIiBmb250LWZhbWlseT0ic2Fucy1zZXJpZiIgZm9udC1zaXplPSIxNCIgbGVuZ3RoQWRqdXN0PSJzcGFjaW5nIiB0ZXh0TGVuZ3RoPSI1NiIgeD0iMTAyMCIgeT0iOTIuMjE4OCI+UkFXRyBBUEk8L3RleHQ+PHRleHQgZmlsbD0iIzAwMDAwMCIgZm9udC1mYW1pbHk9InNhbnMtc2VyaWYiIGZvbnQtc2l6ZT0iMTQiIGxlbmd0aEFkanVzdD0ic3BhY2luZyIgdGV4dExlbmd0aD0iMTI2IiB4PSI5ODUiIHk9IjEwNy4yMDMxIj4oRXh0ZXJuYWwgU2VydmljZSk8L3RleHQ+PC9nPjxnIGNsYXNzPSJwYXJ0aWNpcGFudCBwYXJ0aWNpcGFudC10YWlsIiBkYXRhLXBhcnRpY2lwYW50PSJSQVdHIj48cmVjdCBmaWxsPSIjQUREOEU2IiBoZWlnaHQ9IjQzLjk2ODgiIHJ4PSIyLjUiIHJ5PSIyLjUiIHN0eWxlPSJzdHJva2U6IzAwMDBGRjtzdHJva2Utd2lkdGg6MC41OyIgd2lkdGg9IjE0MCIgeD0iOTc4IiB5PSIxODcyLjI4OTEiLz48dGV4dCBmaWxsPSIjMDAwMDAwIiBmb250LWZhbWlseT0ic2Fucy1zZXJpZiIgZm9udC1zaXplPSIxNCIgbGVuZ3RoQWRqdXN0PSJzcGFjaW5nIiB0ZXh0TGVuZ3RoPSI1NiIgeD0iMTAyMCIgeT0iMTg5Mi41MjM0Ij5SQVdHIEFQSTwvdGV4dD48dGV4dCBmaWxsPSIjMDAwMDAwIiBmb250LWZhbWlseT0ic2Fucy1zZXJpZiIgZm9udC1zaXplPSIxNCIgbGVuZ3RoQWRqdXN0PSJzcGFjaW5nIiB0ZXh0TGVuZ3RoPSIxMjYiIHg9Ijk4NSIgeT0iMTkwNy41MDc4Ij4oRXh0ZXJuYWwgU2VydmljZSk8L3RleHQ+PC9nPjxnIGNsYXNzPSJwYXJ0aWNpcGFudCBwYXJ0aWNpcGFudC1oZWFkIiBkYXRhLXBhcnRpY2lwYW50PSJEQiI+PHRleHQgZmlsbD0iIzAwMDAwMCIgZm9udC1mYW1pbHk9InNhbnMtc2VyaWYiIGZvbnQtc2l6ZT0iMTQiIGxlbmd0aEFkanVzdD0ic3BhY2luZyIgdGV4dExlbmd0aD0iOTEiIHg9IjExMjgiIHk9IjEwMC4yMTg4Ij5Nb25nb0RCIEF0bGFzPC90ZXh0Pjx0ZXh0IGZpbGw9IiMwMDAwMDAiIGZvbnQtZmFtaWx5PSJzYW5zLXNlcmlmIiBmb250LXNpemU9IjE0IiBsZW5ndGhBZGp1c3Q9InNwYWNpbmciIHRleHRMZW5ndGg9IjcwIiB4PSIxMTM4LjUiIHk9IjExNS4yMDMxIj4oRGF0YWJhc2UpPC90ZXh0PjxwYXRoIGQ9Ik0xMTU4LjUsNTAuOTg0NCBDMTE1OC41LDQwLjk4NDQgMTE3Ni41LDQwLjk4NDQgMTE3Ni41LDQwLjk4NDQgQzExNzYuNSw0MC45ODQ0IDExOTQuNSw0MC45ODQ0IDExOTQuNSw1MC45ODQ0IEwxMTk0LjUsNzYuOTg0NCBDMTE5NC41LDg2Ljk4NDQgMTE3Ni41LDg2Ljk4NDQgMTE3Ni41LDg2Ljk4NDQgQzExNzYuNSw4Ni45ODQ0IDExNTguNSw4Ni45ODQ0IDExNTguNSw3Ni45ODQ0IEwxMTU4LjUsNTAuOTg0NCIgZmlsbD0iI0ZGRkZFMCIgc3R5bGU9InN0cm9rZTojRkZBNTAwO3N0cm9rZS13aWR0aDoxLjU7Ii8+PHBhdGggZD0iTTExNTguNSw1MC45ODQ0IEMxMTU4LjUsNjAuOTg0NCAxMTc2LjUsNjAuOTg0NCAxMTc2LjUsNjAuOTg0NCBDMTE3Ni41LDYwLjk4NDQgMTE5NC41LDYwLjk4NDQgMTE5NC41LDUwLjk4NDQiIGZpbGw9Im5vbmUiIHN0eWxlPSJzdHJva2U6I0ZGQTUwMDtzdHJva2Utd2lkdGg6MS41OyIvPjwvZz48ZyBjbGFzcz0icGFydGljaXBhbnQgcGFydGljaXBhbnQtdGFpbCIgZGF0YS1wYXJ0aWNpcGFudD0iREIiPjx0ZXh0IGZpbGw9IiMwMDAwMDAiIGZvbnQtZmFtaWx5PSJzYW5zLXNlcmlmIiBmb250LXNpemU9IjE0IiBsZW5ndGhBZGp1c3Q9InNwYWNpbmciIHRleHRMZW5ndGg9IjkxIiB4PSIxMTI4IiB5PSIxODg1LjUyMzQiPk1vbmdvREIgQXRsYXM8L3RleHQ+PHRleHQgZmlsbD0iIzAwMDAwMCIgZm9udC1mYW1pbHk9InNhbnMtc2VyaWYiIGZvbnQtc2l6ZT0iMTQiIGxlbmd0aEFkanVzdD0ic3BhY2luZyIgdGV4dExlbmd0aD0iNzAiIHg9IjExMzguNSIgeT0iMTkwMC41MDc4Ij4oRGF0YWJhc2UpPC90ZXh0PjxwYXRoIGQ9Ik0xMTU4LjUsMTkxMi4yNTc4IEMxMTU4LjUsMTkwMi4yNTc4IDExNzYuNSwxOTAyLjI1NzggMTE3Ni41LDE5MDIuMjU3OCBDMTE3Ni41LDE5MDIuMjU3OCAxMTk0LjUsMTkwMi4yNTc4IDExOTQuNSwxOTEyLjI1NzggTDExOTQuNSwxOTM4LjI1NzggQzExOTQuNSwxOTQ4LjI1NzggMTE3Ni41LDE5NDguMjU3OCAxMTc2LjUsMTk0OC4yNTc4IEMxMTc2LjUsMTk0OC4yNTc4IDExNTguNSwxOTQ4LjI1NzggMTE1OC41LDE5MzguMjU3OCBMMTE1OC41LDE5MTIuMjU3OCIgZmlsbD0iI0ZGRkZFMCIgc3R5bGU9InN0cm9rZTojRkZBNTAwO3N0cm9rZS13aWR0aDoxLjU7Ii8+PHBhdGggZD0iTTExNTguNSwxOTEyLjI1NzggQzExNTguNSwxOTIyLjI1NzggMTE3Ni41LDE5MjIuMjU3OCAxMTc2LjUsMTkyMi4yNTc4IEMxMTc2LjUsMTkyMi4yNTc4IDExOTQuNSwxOTIyLjI1NzggMTE5NC41LDE5MTIuMjU3OCIgZmlsbD0ibm9uZSIgc3R5bGU9InN0cm9rZTojRkZBNTAwO3N0cm9rZS13aWR0aDoxLjU7Ii8+PC9nPjxnPjx0aXRsZT5SZWFjdCBVSTwvdGl0bGU+PHJlY3QgZmlsbD0iI0ZGRkZGRiIgaGVpZ2h0PSI4My43NDIyIiBzdHlsZT0ic3Ryb2tlOiM1NTU1NTU7c3Ryb2tlLXdpZHRoOjE7IiB3aWR0aD0iMTAiIHg9IjMzNSIgeT0iMTg4Ljc4MTMiLz48L2c+PGc+PHRpdGxlPlJlYWN0IFVJPC90aXRsZT48cmVjdCBmaWxsPSIjRkZGRkZGIiBoZWlnaHQ9IjEzOS41NzAzIiBzdHlsZT0ic3Ryb2tlOiM1NTU1NTU7c3Ryb2tlLXdpZHRoOjE7IiB3aWR0aD0iMTAiIHg9IjMzNSIgeT0iMzQyLjM1MTYiLz48L2c+PGc+PHRpdGxlPlJlYWN0IFVJPC90aXRsZT48cmVjdCBmaWxsPSIjRkZGRkZGIiBoZWlnaHQ9IjU2MS45MTQxIiBzdHlsZT0ic3Ryb2tlOiM1NTU1NTU7c3Ryb2tlLXdpZHRoOjE7IiB3aWR0aD0iMTAiIHg9IjMzNSIgeT0iNTUxLjc1Ii8+PC9nPjxnPjx0aXRsZT5SZWFjdCBVSTwvdGl0bGU+PHJlY3QgZmlsbD0iI0ZGRkZGRiIgaGVpZ2h0PSIzNTAuNzQyMiIgc3R5bGU9InN0cm9rZTojNTU1NTU1O3N0cm9rZS13aWR0aDoxOyIgd2lkdGg9IjEwIiB4PSIzMzUiIHk9IjExODMuNDkyMiIvPjwvZz48Zz48dGl0bGU+UmVhY3QgVUk8L3RpdGxlPjxyZWN0IGZpbGw9IiNGRkZGRkYiIGhlaWdodD0iODMuNzQyMiIgc3R5bGU9InN0cm9rZTojNTU1NTU1O3N0cm9rZS13aWR0aDoxOyIgd2lkdGg9IjEwIiB4PSIzMzUiIHk9IjE2MDQuMDYyNSIvPjwvZz48Zz48dGl0bGU+UmVhY3QgVUk8L3RpdGxlPjxyZWN0IGZpbGw9IiNGRkZGRkYiIGhlaWdodD0iMTM5LjU3MDMiIHN0eWxlPSJzdHJva2U6IzU1NTU1NTtzdHJva2Utd2lkdGg6MTsiIHdpZHRoPSIxMCIgeD0iMzM1IiB5PSIxNzE1LjcxODgiLz48L2c+PGc+PHRpdGxlPkV4cHJlc3MgQmFja2VuZDwvdGl0bGU+PHJlY3QgZmlsbD0iI0ZGRkZGRiIgaGVpZ2h0PSI4My43NDIyIiBzdHlsZT0ic3Ryb2tlOiM1NTU1NTU7c3Ryb2tlLXdpZHRoOjE7IiB3aWR0aD0iMTAiIHg9Ijc1Ni41IiB5PSIzNzAuMjY1NiIvPjwvZz48Zz48dGl0bGU+RXhwcmVzcyBCYWNrZW5kPC90aXRsZT48cmVjdCBmaWxsPSIjRkZGRkZGIiBoZWlnaHQ9IjUwNi4wODU5IiBzdHlsZT0ic3Ryb2tlOiM1NTU1NTU7c3Ryb2tlLXdpZHRoOjE7IiB3aWR0aD0iMTAiIHg9Ijc1Ni41IiB5PSI1NzkuNjY0MSIvPjwvZz48Zz48dGl0bGU+RXhwcmVzcyBCYWNrZW5kPC90aXRsZT48cmVjdCBmaWxsPSIjRkZGRkZGIiBoZWlnaHQ9IjgzLjc0MjIiIHN0eWxlPSJzdHJva2U6IzU1NTU1NTtzdHJva2Utd2lkdGg6MTsiIHdpZHRoPSIxMCIgeD0iNzU2LjUiIHk9IjEyMTEuNDA2MyIvPjwvZz48Zz48dGl0bGU+RXhwcmVzcyBCYWNrZW5kPC90aXRsZT48cmVjdCBmaWxsPSIjRkZGRkZGIiBoZWlnaHQ9IjE1NS4zNDM4IiBzdHlsZT0ic3Ryb2tlOiM1NTU1NTU7c3Ryb2tlLXdpZHRoOjE7IiB3aWR0aD0iMTAiIHg9Ijc1Ni41IiB5PSIxMzUwLjk3NjYiLz48L2c+PGc+PHRpdGxlPkV4cHJlc3MgQmFja2VuZDwvdGl0bGU+PHJlY3QgZmlsbD0iI0ZGRkZGRiIgaGVpZ2h0PSI4My43NDIyIiBzdHlsZT0ic3Ryb2tlOiM1NTU1NTU7c3Ryb2tlLXdpZHRoOjE7IiB3aWR0aD0iMTAiIHg9Ijc1Ni41IiB5PSIxNzQzLjYzMjgiLz48L2c+PGc+PHRpdGxlPk1vbmdvREIgQXRsYXM8L3RpdGxlPjxyZWN0IGZpbGw9IiNGRkZGRkYiIGhlaWdodD0iMjcuOTE0MSIgc3R5bGU9InN0cm9rZTojNTU1NTU1O3N0cm9rZS13aWR0aDoxOyIgd2lkdGg9IjEwIiB4PSIxMTcxLjUiIHk9IjM5OC4xNzk3Ii8+PC9nPjxyZWN0IGZpbGw9IiNFRUVFRUUiIGhlaWdodD0iMyIgc3R5bGU9InN0cm9rZTojRUVFRUVFO3N0cm9rZS13aWR0aDoxOyIgd2lkdGg9IjEyNTUiIHg9IjAiIHk9IjE0Ni45MTAyIi8+PGxpbmUgc3R5bGU9InN0cm9rZTojMDAwMDAwO3N0cm9rZS13aWR0aDoxOyIgeDE9IjAiIHgyPSIxMjU1IiB5MT0iMTQ2LjkxMDIiIHkyPSIxNDYuOTEwMiIvPjxsaW5lIHN0eWxlPSJzdHJva2U6IzAwMDAwMDtzdHJva2Utd2lkdGg6MTsiIHgxPSIwIiB4Mj0iMTI1NSIgeTE9IjE0OS45MTAyIiB5Mj0iMTQ5LjkxMDIiLz48cmVjdCBmaWxsPSIjRUVFRUVFIiBoZWlnaHQ9IjIxLjkxNDEiIHN0eWxlPSJzdHJva2U6IzAwMDAwMDtzdHJva2Utd2lkdGg6MjsiIHdpZHRoPSIxMTEuNSIgeD0iNTcxLjc1IiB5PSIxMzYuOTUzMSIvPjx0ZXh0IGZpbGw9IiMwMDAwMDAiIGZvbnQtZmFtaWx5PSJzYW5zLXNlcmlmIiBmb250LXNpemU9IjEzIiBmb250LXdlaWdodD0iYm9sZCIgbGVuZ3RoQWRqdXN0PSJzcGFjaW5nIiB0ZXh0TGVuZ3RoPSI5MSIgeD0iNTc3Ljc1IiB5PSIxNTMuMjQyMiI+SG9tZSBQYWdlIEZsb3c8L3RleHQ+PGcgY2xhc3M9Im1lc3NhZ2UiIGRhdGEtcGFydGljaXBhbnQtMT0iVXNlciIgZGF0YS1wYXJ0aWNpcGFudC0yPSJVSSI+PHBvbHlnb24gZmlsbD0iIzE4MTgxOCIgcG9pbnRzPSIzMjMsMTg0Ljc4MTMsMzMzLDE4OC43ODEzLDMyMywxOTIuNzgxMywzMjcsMTg4Ljc4MTMiIHN0eWxlPSJzdHJva2U6IzE4MTgxODtzdHJva2Utd2lkdGg6MTsiLz48bGluZSBzdHlsZT0ic3Ryb2tlOiMxODE4MTg7c3Ryb2tlLXdpZHRoOjE7IiB4MT0iNDciIHgyPSIzMjkiIHkxPSIxODguNzgxMyIgeTI9IjE4OC43ODEzIi8+PHRleHQgZmlsbD0iIzAwMDAwMCIgZm9udC1mYW1pbHk9InNhbnMtc2VyaWYiIGZvbnQtc2l6ZT0iMTMiIGZvbnQtd2VpZ2h0PSJib2xkIiBsZW5ndGhBZGp1c3Q9InNwYWNpbmciIHRleHRMZW5ndGg9IjEzIiB4PSI1NCIgeT0iMTg1LjE1NjMiPjEuPC90ZXh0Pjx0ZXh0IGZpbGw9IiMwMDAwMDAiIGZvbnQtZmFtaWx5PSJzYW5zLXNlcmlmIiBmb250LXNpemU9IjEzIiBsZW5ndGhBZGp1c3Q9InNwYWNpbmciIHRleHRMZW5ndGg9IjExMC41IiB4PSI3MSIgeT0iMTg1LjE1NjMiPjEuIE9wZW4gSG9tZSBQYWdlPC90ZXh0PjwvZz48ZyBjbGFzcz0ibWVzc2FnZSIgZGF0YS1wYXJ0aWNpcGFudC0xPSJVSSIgZGF0YS1wYXJ0aWNpcGFudC0yPSJSQVdHIj48cG9seWdvbiBmaWxsPSIjMTgxODE4IiBwb2ludHM9IjEwMzYsMjEyLjY5NTMsMTA0NiwyMTYuNjk1MywxMDM2LDIyMC42OTUzLDEwNDAsMjE2LjY5NTMiIHN0eWxlPSJzdHJva2U6IzE4MTgxODtzdHJva2Utd2lkdGg6MTsiLz48bGluZSBzdHlsZT0ic3Ryb2tlOiMxODE4MTg7c3Ryb2tlLXdpZHRoOjE7IiB4MT0iMzQ1IiB4Mj0iMTA0MiIgeTE9IjIxNi42OTUzIiB5Mj0iMjE2LjY5NTMiLz48dGV4dCBmaWxsPSIjMDAwMDAwIiBmb250LWZhbWlseT0ic2Fucy1zZXJpZiIgZm9udC1zaXplPSIxMyIgZm9udC13ZWlnaHQ9ImJvbGQiIGxlbmd0aEFkanVzdD0ic3BhY2luZyIgdGV4dExlbmd0aD0iMTMiIHg9IjM1MiIgeT0iMjEzLjA3MDMiPjIuPC90ZXh0Pjx0ZXh0IGZpbGw9IiMwMDAwMDAiIGZvbnQtZmFtaWx5PSJzYW5zLXNlcmlmIiBmb250LXNpemU9IjEzIiBsZW5ndGhBZGp1c3Q9InNwYWNpbmciIHRleHRMZW5ndGg9IjE2Mi41IiB4PSIzNjkiIHk9IjIxMy4wNzAzIj4xLjEuIEZldGNoIFRyZW5kaW5nIEdhbWVzPC90ZXh0PjwvZz48ZyBjbGFzcz0ibWVzc2FnZSIgZGF0YS1wYXJ0aWNpcGFudC0xPSJVSSIgZGF0YS1wYXJ0aWNpcGFudC0yPSJEQiI+PHBvbHlnb24gZmlsbD0iIzE4MTgxOCIgcG9pbnRzPSIxMTY0LjUsMjQwLjYwOTQsMTE3NC41LDI0NC42MDk0LDExNjQuNSwyNDguNjA5NCwxMTY4LjUsMjQ0LjYwOTQiIHN0eWxlPSJzdHJva2U6IzE4MTgxODtzdHJva2Utd2lkdGg6MTsiLz48bGluZSBzdHlsZT0ic3Ryb2tlOiMxODE4MTg7c3Ryb2tlLXdpZHRoOjE7IiB4MT0iMzQ1IiB4Mj0iMTE3MC41IiB5MT0iMjQ0LjYwOTQiIHkyPSIyNDQuNjA5NCIvPjx0ZXh0IGZpbGw9IiMwMDAwMDAiIGZvbnQtZmFtaWx5PSJzYW5zLXNlcmlmIiBmb250LXNpemU9IjEzIiBmb250LXdlaWdodD0iYm9sZCIgbGVuZ3RoQWRqdXN0PSJzcGFjaW5nIiB0ZXh0TGVuZ3RoPSIxMyIgeD0iMzUyIiB5PSIyNDAuOTg0NCI+My48L3RleHQ+PHRleHQgZmlsbD0iIzAwMDAwMCIgZm9udC1mYW1pbHk9InNhbnMtc2VyaWYiIGZvbnQtc2l6ZT0iMTMiIGxlbmd0aEFkanVzdD0ic3BhY2luZyIgdGV4dExlbmd0aD0iMTY5IiB4PSIzNjkiIHk9IjI0MC45ODQ0Ij4xLjIuIEZldGNoIFN1Z2dlc3RlZCBHYW1lczwvdGV4dD48L2c+PGcgY2xhc3M9Im1lc3NhZ2UiIGRhdGEtcGFydGljaXBhbnQtMT0iVUkiIGRhdGEtcGFydGljaXBhbnQtMj0iVXNlciI+PHBvbHlnb24gZmlsbD0iIzE4MTgxOCIgcG9pbnRzPSI1OCwyNjguNTIzNCw0OCwyNzIuNTIzNCw1OCwyNzYuNTIzNCw1NCwyNzIuNTIzNCIgc3R5bGU9InN0cm9rZTojMTgxODE4O3N0cm9rZS13aWR0aDoxOyIvPjxsaW5lIHN0eWxlPSJzdHJva2U6IzE4MTgxODtzdHJva2Utd2lkdGg6MTsiIHgxPSI1MiIgeDI9IjMzOSIgeTE9IjI3Mi41MjM0IiB5Mj0iMjcyLjUyMzQiLz48dGV4dCBmaWxsPSIjMDAwMDAwIiBmb250LWZhbWlseT0ic2Fucy1zZXJpZiIgZm9udC1zaXplPSIxMyIgZm9udC13ZWlnaHQ9ImJvbGQiIGxlbmd0aEFkanVzdD0ic3BhY2luZyIgdGV4dExlbmd0aD0iMTMiIHg9IjY0IiB5PSIyNjguODk4NCI+NC48L3RleHQ+PHRleHQgZmlsbD0iIzAwMDAwMCIgZm9udC1mYW1pbHk9InNhbnMtc2VyaWYiIGZvbnQtc2l6ZT0iMTMiIGxlbmd0aEFkanVzdD0ic3BhY2luZyIgdGV4dExlbmd0aD0iMTgyIiB4PSI4MSIgeT0iMjY4Ljg5ODQiPjEuMy4gRGlzcGxheSBIb21lIHdpdGggR2FtZXM8L3RleHQ+PC9nPjxyZWN0IGZpbGw9IiNFRUVFRUUiIGhlaWdodD0iMyIgc3R5bGU9InN0cm9rZTojRUVFRUVFO3N0cm9rZS13aWR0aDoxOyIgd2lkdGg9IjEyNTUiIHg9IjAiIHk9IjMwMC40ODA1Ii8+PGxpbmUgc3R5bGU9InN0cm9rZTojMDAwMDAwO3N0cm9rZS13aWR0aDoxOyIgeDE9IjAiIHgyPSIxMjU1IiB5MT0iMzAwLjQ4MDUiIHkyPSIzMDAuNDgwNSIvPjxsaW5lIHN0eWxlPSJzdHJva2U6IzAwMDAwMDtzdHJva2Utd2lkdGg6MTsiIHgxPSIwIiB4Mj0iMTI1NSIgeTE9IjMwMy40ODA1IiB5Mj0iMzAzLjQ4MDUiLz48cmVjdCBmaWxsPSIjRUVFRUVFIiBoZWlnaHQ9IjIxLjkxNDEiIHN0eWxlPSJzdHJva2U6IzAwMDAwMDtzdHJva2Utd2lkdGg6MjsiIHdpZHRoPSIxMzEiIHg9IjU2MiIgeT0iMjkwLjUyMzQiLz48dGV4dCBmaWxsPSIjMDAwMDAwIiBmb250LWZhbWlseT0ic2Fucy1zZXJpZiIgZm9udC1zaXplPSIxMyIgZm9udC13ZWlnaHQ9ImJvbGQiIGxlbmd0aEFkanVzdD0ic3BhY2luZyIgdGV4dExlbmd0aD0iMTEwLjUiIHg9IjU2OCIgeT0iMzA2LjgxMjUiPkxvZ2luL1NpZ251cCBGbG93PC90ZXh0PjxnIGNsYXNzPSJtZXNzYWdlIiBkYXRhLXBhcnRpY2lwYW50LTE9IlVzZXIiIGRhdGEtcGFydGljaXBhbnQtMj0iVUkiPjxwb2x5Z29uIGZpbGw9IiMxODE4MTgiIHBvaW50cz0iMzIzLDMzOC4zNTE2LDMzMywzNDIuMzUxNiwzMjMsMzQ2LjM1MTYsMzI3LDM0Mi4zNTE2IiBzdHlsZT0ic3Ryb2tlOiMxODE4MTg7c3Ryb2tlLXdpZHRoOjE7Ii8+PGxpbmUgc3R5bGU9InN0cm9rZTojMTgxODE4O3N0cm9rZS13aWR0aDoxOyIgeDE9IjQ3IiB4Mj0iMzI5IiB5MT0iMzQyLjM1MTYiIHkyPSIzNDIuMzUxNiIvPjx0ZXh0IGZpbGw9IiMwMDAwMDAiIGZvbnQtZmFtaWx5PSJzYW5zLXNlcmlmIiBmb250LXNpemU9IjEzIiBmb250LXdlaWdodD0iYm9sZCIgbGVuZ3RoQWRqdXN0PSJzcGFjaW5nIiB0ZXh0TGVuZ3RoPSIxMyIgeD0iNTQiIHk9IjMzOC43MjY2Ij41LjwvdGV4dD48dGV4dCBmaWxsPSIjMDAwMDAwIiBmb250LWZhbWlseT0ic2Fucy1zZXJpZiIgZm9udC1zaXplPSIxMyIgbGVuZ3RoQWRqdXN0PSJzcGFjaW5nIiB0ZXh0TGVuZ3RoPSIxMzYuNSIgeD0iNzEiIHk9IjMzOC43MjY2Ij4yLiBDbGljayBMb2dpbi9TaWdudXA8L3RleHQ+PC9nPjxnIGNsYXNzPSJtZXNzYWdlIiBkYXRhLXBhcnRpY2lwYW50LTE9IlVJIiBkYXRhLXBhcnRpY2lwYW50LTI9IkJhY2tlbmQiPjxwb2x5Z29uIGZpbGw9IiMxODE4MTgiIHBvaW50cz0iNzQ0LjUsMzY2LjI2NTYsNzU0LjUsMzcwLjI2NTYsNzQ0LjUsMzc0LjI2NTYsNzQ4LjUsMzcwLjI2NTYiIHN0eWxlPSJzdHJva2U6IzE4MTgxODtzdHJva2Utd2lkdGg6MTsiLz48bGluZSBzdHlsZT0ic3Ryb2tlOiMxODE4MTg7c3Ryb2tlLXdpZHRoOjE7IiB4MT0iMzQ1IiB4Mj0iNzUwLjUiIHkxPSIzNzAuMjY1NiIgeTI9IjM3MC4yNjU2Ii8+PHRleHQgZmlsbD0iIzAwMDAwMCIgZm9udC1mYW1pbHk9InNhbnMtc2VyaWYiIGZvbnQtc2l6ZT0iMTMiIGZvbnQtd2VpZ2h0PSJib2xkIiBsZW5ndGhBZGp1c3Q9InNwYWNpbmciIHRleHRMZW5ndGg9IjEzIiB4PSIzNTIiIHk9IjM2Ni42NDA2Ij42LjwvdGV4dD48dGV4dCBmaWxsPSIjMDAwMDAwIiBmb250LWZhbWlseT0ic2Fucy1zZXJpZiIgZm9udC1zaXplPSIxMyIgbGVuZ3RoQWRqdXN0PSJzcGFjaW5nIiB0ZXh0TGVuZ3RoPSIxMzYuNSIgeD0iMzY5IiB5PSIzNjYuNjQwNiI+Mi4xLiBTZW5kIENyZWRlbnRpYWxzPC90ZXh0PjwvZz48ZyBjbGFzcz0ibWVzc2FnZSIgZGF0YS1wYXJ0aWNpcGFudC0xPSJCYWNrZW5kIiBkYXRhLXBhcnRpY2lwYW50LTI9IkRCIj48cG9seWdvbiBmaWxsPSIjMTgxODE4IiBwb2ludHM9IjExNTkuNSwzOTQuMTc5NywxMTY5LjUsMzk4LjE3OTcsMTE1OS41LDQwMi4xNzk3LDExNjMuNSwzOTguMTc5NyIgc3R5bGU9InN0cm9rZTojMTgxODE4O3N0cm9rZS13aWR0aDoxOyIvPjxsaW5lIHN0eWxlPSJzdHJva2U6IzE4MTgxODtzdHJva2Utd2lkdGg6MTsiIHgxPSI3NjYuNSIgeDI9IjExNjUuNSIgeTE9IjM5OC4xNzk3IiB5Mj0iMzk4LjE3OTciLz48dGV4dCBmaWxsPSIjMDAwMDAwIiBmb250LWZhbWlseT0ic2Fucy1zZXJpZiIgZm9udC1zaXplPSIxMyIgZm9udC13ZWlnaHQ9ImJvbGQiIGxlbmd0aEFkanVzdD0ic3BhY2luZyIgdGV4dExlbmd0aD0iMTMiIHg9Ijc3My41IiB5PSIzOTQuNTU0NyI+Ny48L3RleHQ+PHRleHQgZmlsbD0iIzAwMDAwMCIgZm9udC1mYW1pbHk9InNhbnMtc2VyaWYiIGZvbnQtc2l6ZT0iMTMiIGxlbmd0aEFkanVzdD0ic3BhY2luZyIgdGV4dExlbmd0aD0iMTc1LjUiIHg9Ijc5MC41IiB5PSIzOTQuNTU0NyI+Mi4xLjEuIFZhbGlkYXRlIC8gU2F2ZSBVc2VyPC90ZXh0PjwvZz48ZyBjbGFzcz0ibWVzc2FnZSIgZGF0YS1wYXJ0aWNpcGFudC0xPSJEQiIgZGF0YS1wYXJ0aWNpcGFudC0yPSJCYWNrZW5kIj48cG9seWdvbiBmaWxsPSIjMTgxODE4IiBwb2ludHM9Ijc3Ny41LDQyMi4wOTM4LDc2Ny41LDQyNi4wOTM4LDc3Ny41LDQzMC4wOTM4LDc3My41LDQyNi4wOTM4IiBzdHlsZT0ic3Ryb2tlOiMxODE4MTg7c3Ryb2tlLXdpZHRoOjE7Ii8+PGxpbmUgc3R5bGU9InN0cm9rZTojMTgxODE4O3N0cm9rZS13aWR0aDoxO3N0cm9rZS1kYXNoYXJyYXk6Mi4wLDIuMDsiIHgxPSI3NzEuNSIgeDI9IjExNzUuNSIgeTE9IjQyNi4wOTM4IiB5Mj0iNDI2LjA5MzgiLz48dGV4dCBmaWxsPSIjMDAwMDAwIiBmb250LWZhbWlseT0ic2Fucy1zZXJpZiIgZm9udC1zaXplPSIxMyIgZm9udC13ZWlnaHQ9ImJvbGQiIGxlbmd0aEFkanVzdD0ic3BhY2luZyIgdGV4dExlbmd0aD0iMTMiIHg9Ijc4My41IiB5PSI0MjIuNDY4OCI+OC48L3RleHQ+PHRleHQgZmlsbD0iIzAwMDAwMCIgZm9udC1mYW1pbHk9InNhbnMtc2VyaWYiIGZvbnQtc2l6ZT0iMTMiIGxlbmd0aEFkanVzdD0ic3BhY2luZyIgdGV4dExlbmd0aD0iMTg4LjUiIHg9IjgwMC41IiB5PSI0MjIuNDY4OCI+Mi4xLjIuIFJldHVybiBTdWNjZXNzL0ZhaWx1cmU8L3RleHQ+PC9nPjxnIGNsYXNzPSJtZXNzYWdlIiBkYXRhLXBhcnRpY2lwYW50LTE9IkJhY2tlbmQiIGRhdGEtcGFydGljaXBhbnQtMj0iVUkiPjxwb2x5Z29uIGZpbGw9IiMxODE4MTgiIHBvaW50cz0iMzU2LDQ1MC4wMDc4LDM0Niw0NTQuMDA3OCwzNTYsNDU4LjAwNzgsMzUyLDQ1NC4wMDc4IiBzdHlsZT0ic3Ryb2tlOiMxODE4MTg7c3Ryb2tlLXdpZHRoOjE7Ii8+PGxpbmUgc3R5bGU9InN0cm9rZTojMTgxODE4O3N0cm9rZS13aWR0aDoxO3N0cm9rZS1kYXNoYXJyYXk6Mi4wLDIuMDsiIHgxPSIzNTAiIHgyPSI3NjAuNSIgeTE9IjQ1NC4wMDc4IiB5Mj0iNDU0LjAwNzgiLz48dGV4dCBmaWxsPSIjMDAwMDAwIiBmb250LWZhbWlseT0ic2Fucy1zZXJpZiIgZm9udC1zaXplPSIxMyIgZm9udC13ZWlnaHQ9ImJvbGQiIGxlbmd0aEFkanVzdD0ic3BhY2luZyIgdGV4dExlbmd0aD0iMTMiIHg9IjM2MiIgeT0iNDUwLjM4MjgiPjkuPC90ZXh0Pjx0ZXh0IGZpbGw9IiMwMDAwMDAiIGZvbnQtZmFtaWx5PSJzYW5zLXNlcmlmIiBmb250LXNpemU9IjEzIiBsZW5ndGhBZGp1c3Q9InNwYWNpbmciIHRleHRMZW5ndGg9IjExMC41IiB4PSIzNzkiIHk9IjQ1MC4zODI4Ij4yLjIuIEF1dGggU3VjY2VzczwvdGV4dD48L2c+PGcgY2xhc3M9Im1lc3NhZ2UiIGRhdGEtcGFydGljaXBhbnQtMT0iVUkiIGRhdGEtcGFydGljaXBhbnQtMj0iVXNlciI+PHBvbHlnb24gZmlsbD0iIzE4MTgxOCIgcG9pbnRzPSI1OCw0NzcuOTIxOSw0OCw0ODEuOTIxOSw1OCw0ODUuOTIxOSw1NCw0ODEuOTIxOSIgc3R5bGU9InN0cm9rZTojMTgxODE4O3N0cm9rZS13aWR0aDoxOyIvPjxsaW5lIHN0eWxlPSJzdHJva2U6IzE4MTgxODtzdHJva2Utd2lkdGg6MTsiIHgxPSI1MiIgeDI9IjMzOSIgeTE9IjQ4MS45MjE5IiB5Mj0iNDgxLjkyMTkiLz48dGV4dCBmaWxsPSIjMDAwMDAwIiBmb250LWZhbWlseT0ic2Fucy1zZXJpZiIgZm9udC1zaXplPSIxMyIgZm9udC13ZWlnaHQ9ImJvbGQiIGxlbmd0aEFkanVzdD0ic3BhY2luZyIgdGV4dExlbmd0aD0iMTkuNSIgeD0iNjQiIHk9IjQ3OC4yOTY5Ij4xMC48L3RleHQ+PHRleHQgZmlsbD0iIzAwMDAwMCIgZm9udC1mYW1pbHk9InNhbnMtc2VyaWYiIGZvbnQtc2l6ZT0iMTMiIGxlbmd0aEFkanVzdD0ic3BhY2luZyIgdGV4dExlbmd0aD0iMTYyLjUiIHg9Ijg3LjUiIHk9IjQ3OC4yOTY5Ij4yLjMuIFNob3cgTG9nZ2VkLWluIFN0YXRlPC90ZXh0PjwvZz48cmVjdCBmaWxsPSIjRUVFRUVFIiBoZWlnaHQ9IjMiIHN0eWxlPSJzdHJva2U6I0VFRUVFRTtzdHJva2Utd2lkdGg6MTsiIHdpZHRoPSIxMjU1IiB4PSIwIiB5PSI1MDkuODc4OSIvPjxsaW5lIHN0eWxlPSJzdHJva2U6IzAwMDAwMDtzdHJva2Utd2lkdGg6MTsiIHgxPSIwIiB4Mj0iMTI1NSIgeTE9IjUwOS44Nzg5IiB5Mj0iNTA5Ljg3ODkiLz48bGluZSBzdHlsZT0ic3Ryb2tlOiMwMDAwMDA7c3Ryb2tlLXdpZHRoOjE7IiB4MT0iMCIgeDI9IjEyNTUiIHkxPSI1MTIuODc4OSIgeTI9IjUxMi44Nzg5Ii8+PHJlY3QgZmlsbD0iI0VFRUVFRSIgaGVpZ2h0PSIyMS45MTQxIiBzdHlsZT0ic3Ryb2tlOiMwMDAwMDA7c3Ryb2tlLXdpZHRoOjI7IiB3aWR0aD0iMTA1IiB4PSI1NzUiIHk9IjQ5OS45MjE5Ii8+PHRleHQgZmlsbD0iIzAwMDAwMCIgZm9udC1mYW1pbHk9InNhbnMtc2VyaWYiIGZvbnQtc2l6ZT0iMTMiIGZvbnQtd2VpZ2h0PSJib2xkIiBsZW5ndGhBZGp1c3Q9InNwYWNpbmciIHRleHRMZW5ndGg9Ijg0LjUiIHg9IjU4MSIgeT0iNTE2LjIxMDkiPkFkZCBHYW1lIEZsb3c8L3RleHQ+PGcgY2xhc3M9Im1lc3NhZ2UiIGRhdGEtcGFydGljaXBhbnQtMT0iVXNlciIgZGF0YS1wYXJ0aWNpcGFudC0yPSJVSSI+PHBvbHlnb24gZmlsbD0iIzE4MTgxOCIgcG9pbnRzPSIzMjMsNTQ3Ljc1LDMzMyw1NTEuNzUsMzIzLDU1NS43NSwzMjcsNTUxLjc1IiBzdHlsZT0ic3Ryb2tlOiMxODE4MTg7c3Ryb2tlLXdpZHRoOjE7Ii8+PGxpbmUgc3R5bGU9InN0cm9rZTojMTgxODE4O3N0cm9rZS13aWR0aDoxOyIgeDE9IjQ3IiB4Mj0iMzI5IiB5MT0iNTUxLjc1IiB5Mj0iNTUxLjc1Ii8+PHRleHQgZmlsbD0iIzAwMDAwMCIgZm9udC1mYW1pbHk9InNhbnMtc2VyaWYiIGZvbnQtc2l6ZT0iMTMiIGZvbnQtd2VpZ2h0PSJib2xkIiBsZW5ndGhBZGp1c3Q9InNwYWNpbmciIHRleHRMZW5ndGg9IjE5LjUiIHg9IjU0IiB5PSI1NDguMTI1Ij4xMS48L3RleHQ+PHRleHQgZmlsbD0iIzAwMDAwMCIgZm9udC1mYW1pbHk9InNhbnMtc2VyaWYiIGZvbnQtc2l6ZT0iMTMiIGxlbmd0aEFkanVzdD0ic3BhY2luZyIgdGV4dExlbmd0aD0iMTk1IiB4PSI3Ny41IiB5PSI1NDguMTI1Ij4zLiBTdWdnZXN0IGEgR2FtZSAoZW50ZXIgbmFtZSk8L3RleHQ+PC9nPjxnIGNsYXNzPSJtZXNzYWdlIiBkYXRhLXBhcnRpY2lwYW50LTE9IlVJIiBkYXRhLXBhcnRpY2lwYW50LTI9IkJhY2tlbmQiPjxwb2x5Z29uIGZpbGw9IiMxODE4MTgiIHBvaW50cz0iNzQ0LjUsNTc1LjY2NDEsNzU0LjUsNTc5LjY2NDEsNzQ0LjUsNTgzLjY2NDEsNzQ4LjUsNTc5LjY2NDEiIHN0eWxlPSJzdHJva2U6IzE4MTgxODtzdHJva2Utd2lkdGg6MTsiLz48bGluZSBzdHlsZT0ic3Ryb2tlOiMxODE4MTg7c3Ryb2tlLXdpZHRoOjE7IiB4MT0iMzQ1IiB4Mj0iNzUwLjUiIHkxPSI1NzkuNjY0MSIgeTI9IjU3OS42NjQxIi8+PHRleHQgZmlsbD0iIzAwMDAwMCIgZm9udC1mYW1pbHk9InNhbnMtc2VyaWYiIGZvbnQtc2l6ZT0iMTMiIGZvbnQtd2VpZ2h0PSJib2xkIiBsZW5ndGhBZGp1c3Q9InNwYWNpbmciIHRleHRMZW5ndGg9IjE5LjUiIHg9IjM1MiIgeT0iNTc2LjAzOTEiPjEyLjwvdGV4dD48dGV4dCBmaWxsPSIjMDAwMDAwIiBmb250LWZhbWlseT0ic2Fucy1zZXJpZiIgZm9udC1zaXplPSIxMyIgbGVuZ3RoQWRqdXN0PSJzcGFjaW5nIiB0ZXh0TGVuZ3RoPSIyMDEuNSIgeD0iMzc1LjUiIHk9IjU3Ni4wMzkxIj4zLjEuIENoZWNrIGlmIEdhbWUgRXhpc3RzIGluIERCPC90ZXh0PjwvZz48ZyBjbGFzcz0ibWVzc2FnZSIgZGF0YS1wYXJ0aWNpcGFudC0xPSJCYWNrZW5kIiBkYXRhLXBhcnRpY2lwYW50LTI9IkRCIj48cG9seWdvbiBmaWxsPSIjMTgxODE4IiBwb2ludHM9IjExNjQuNSw2MDMuNTc4MSwxMTc0LjUsNjA3LjU3ODEsMTE2NC41LDYxMS41NzgxLDExNjguNSw2MDcuNTc4MSIgc3R5bGU9InN0cm9rZTojMTgxODE4O3N0cm9rZS13aWR0aDoxOyIvPjxsaW5lIHN0eWxlPSJzdHJva2U6IzE4MTgxODtzdHJva2Utd2lkdGg6MTsiIHgxPSI3NjYuNSIgeDI9IjExNzAuNSIgeTE9IjYwNy41NzgxIiB5Mj0iNjA3LjU3ODEiLz48dGV4dCBmaWxsPSIjMDAwMDAwIiBmb250LWZhbWlseT0ic2Fucy1zZXJpZiIgZm9udC1zaXplPSIxMyIgZm9udC13ZWlnaHQ9ImJvbGQiIGxlbmd0aEFkanVzdD0ic3BhY2luZyIgdGV4dExlbmd0aD0iMTkuNSIgeD0iNzczLjUiIHk9IjYwMy45NTMxIj4xMy48L3RleHQ+PHRleHQgZmlsbD0iIzAwMDAwMCIgZm9udC1mYW1pbHk9InNhbnMtc2VyaWYiIGZvbnQtc2l6ZT0iMTMiIGxlbmd0aEFkanVzdD0ic3BhY2luZyIgdGV4dExlbmd0aD0iMjIxIiB4PSI3OTciIHk9IjYwMy45NTMxIj4zLjEuMS4gUXVlcnkgZm9yIGdhbWUgYnkgbmFtZS9zbHVnPC90ZXh0PjwvZz48cGF0aCBkPSJNMTAsNjIyLjU3ODEgTDc0LjUsNjIyLjU3ODEgTDc0LjUsNjI4LjQ5MjIgTDY0LjUsNjM4LjQ5MjIgTDEwLDYzOC40OTIyIEwxMCw2MjIuNTc4MSIgZmlsbD0iI0VFRUVFRSIgc3R5bGU9InN0cm9rZTojMDAwMDAwO3N0cm9rZS13aWR0aDoxLjU7Ii8+PHJlY3QgZmlsbD0ibm9uZSIgaGVpZ2h0PSI0MzYuMjU3OCIgc3R5bGU9InN0cm9rZTojMDAwMDAwO3N0cm9rZS13aWR0aDoxLjU7IiB3aWR0aD0iMTIzNSIgeD0iMTAiIHk9IjYyMi41NzgxIi8+PHRleHQgZmlsbD0iIzU1NTU1NSIgZm9udC1mYW1pbHk9InNhbnMtc2VyaWYiIGZvbnQtc2l6ZT0iMTMiIGZvbnQtd2VpZ2h0PSJib2xkIiBsZW5ndGhBZGp1c3Q9InNwYWNpbmciIHRleHRMZW5ndGg9IjE5LjUiIHg9IjI1IiB5PSI2MzUuODY3MiI+YWx0PC90ZXh0Pjx0ZXh0IGZpbGw9IiMwMDAwMDAiIGZvbnQtZmFtaWx5PSJzYW5zLXNlcmlmIiBmb250LXNpemU9IjExIiBmb250LXdlaWdodD0iYm9sZCIgbGVuZ3RoQWRqdXN0PSJzcGFjaW5nIiB0ZXh0TGVuZ3RoPSIxMTUuNSIgeD0iODkuNSIgeT0iNjM0Ljk3NjYiPltHYW1lIEFscmVhZHkgRXhpc3RzXTwvdGV4dD48ZyBjbGFzcz0ibWVzc2FnZSIgZGF0YS1wYXJ0aWNpcGFudC0xPSJEQiIgZGF0YS1wYXJ0aWNpcGFudC0yPSJCYWNrZW5kIj48cG9seWdvbiBmaWxsPSIjMTgxODE4IiBwb2ludHM9Ijc3Ny41LDY1NC40MDYzLDc2Ny41LDY1OC40MDYzLDc3Ny41LDY2Mi40MDYzLDc3My41LDY1OC40MDYzIiBzdHlsZT0ic3Ryb2tlOiMxODE4MTg7c3Ryb2tlLXdpZHRoOjE7Ii8+PGxpbmUgc3R5bGU9InN0cm9rZTojMTgxODE4O3N0cm9rZS13aWR0aDoxO3N0cm9rZS1kYXNoYXJyYXk6Mi4wLDIuMDsiIHgxPSI3NzEuNSIgeDI9IjExNzUuNSIgeTE9IjY1OC40MDYzIiB5Mj0iNjU4LjQwNjMiLz48dGV4dCBmaWxsPSIjMDAwMDAwIiBmb250LWZhbWlseT0ic2Fucy1zZXJpZiIgZm9udC1zaXplPSIxMyIgZm9udC13ZWlnaHQ9ImJvbGQiIGxlbmd0aEFkanVzdD0ic3BhY2luZyIgdGV4dExlbmd0aD0iMTkuNSIgeD0iNzgzLjUiIHk9IjY1NC43ODEzIj4xNC48L3RleHQ+PHRleHQgZmlsbD0iIzAwMDAwMCIgZm9udC1mYW1pbHk9InNhbnMtc2VyaWYiIGZvbnQtc2l6ZT0iMTMiIGxlbmd0aEFkanVzdD0ic3BhY2luZyIgdGV4dExlbmd0aD0iMTg4LjUiIHg9IjgwNyIgeT0iNjU0Ljc4MTMiPjMuMS4xLjEuIFJldHVybiBFeGlzdGluZyBHYW1lPC90ZXh0PjwvZz48ZyBjbGFzcz0ibWVzc2FnZSIgZGF0YS1wYXJ0aWNpcGFudC0xPSJCYWNrZW5kIiBkYXRhLXBhcnRpY2lwYW50LTI9IkRCIj48cG9seWdvbiBmaWxsPSIjMTgxODE4IiBwb2ludHM9IjExNjQuNSw2ODIuMzIwMywxMTc0LjUsNjg2LjMyMDMsMTE2NC41LDY5MC4zMjAzLDExNjguNSw2ODYuMzIwMyIgc3R5bGU9InN0cm9rZTojMTgxODE4O3N0cm9rZS13aWR0aDoxOyIvPjxsaW5lIHN0eWxlPSJzdHJva2U6IzE4MTgxODtzdHJva2Utd2lkdGg6MTsiIHgxPSI3NjYuNSIgeDI9IjExNzAuNSIgeTE9IjY4Ni4zMjAzIiB5Mj0iNjg2LjMyMDMiLz48dGV4dCBmaWxsPSIjMDAwMDAwIiBmb250LWZhbWlseT0ic2Fucy1zZXJpZiIgZm9udC1zaXplPSIxMyIgZm9udC13ZWlnaHQ9ImJvbGQiIGxlbmd0aEFkanVzdD0ic3BhY2luZyIgdGV4dExlbmd0aD0iMTkuNSIgeD0iNzczLjUiIHk9IjY4Mi42OTUzIj4xNS48L3RleHQ+PHRleHQgZmlsbD0iIzAwMDAwMCIgZm9udC1mYW1pbHk9InNhbnMtc2VyaWYiIGZvbnQtc2l6ZT0iMTMiIGxlbmd0aEFkanVzdD0ic3BhY2luZyIgdGV4dExlbmd0aD0iMjkyLjUiIHg9Ijc5NyIgeT0iNjgyLjY5NTMiPjMuMS4xLjIuIFVwZGF0ZSAnYWRkZWRCeScgZmllbGQgd2l0aCB1c2VybmFtZTwvdGV4dD48L2c+PGcgY2xhc3M9Im1lc3NhZ2UiIGRhdGEtcGFydGljaXBhbnQtMT0iREIiIGRhdGEtcGFydGljaXBhbnQtMj0iQmFja2VuZCI+PHBvbHlnb24gZmlsbD0iIzE4MTgxOCIgcG9pbnRzPSI3NzcuNSw3MTAuMjM0NCw3NjcuNSw3MTQuMjM0NCw3NzcuNSw3MTguMjM0NCw3NzMuNSw3MTQuMjM0NCIgc3R5bGU9InN0cm9rZTojMTgxODE4O3N0cm9rZS13aWR0aDoxOyIvPjxsaW5lIHN0eWxlPSJzdHJva2U6IzE4MTgxODtzdHJva2Utd2lkdGg6MTtzdHJva2UtZGFzaGFycmF5OjIuMCwyLjA7IiB4MT0iNzcxLjUiIHgyPSIxMTc1LjUiIHkxPSI3MTQuMjM0NCIgeTI9IjcxNC4yMzQ0Ii8+PHRleHQgZmlsbD0iIzAwMDAwMCIgZm9udC1mYW1pbHk9InNhbnMtc2VyaWYiIGZvbnQtc2l6ZT0iMTMiIGZvbnQtd2VpZ2h0PSJib2xkIiBsZW5ndGhBZGp1c3Q9InNwYWNpbmciIHRleHRMZW5ndGg9IjE5LjUiIHg9Ijc4My41IiB5PSI3MTAuNjA5NCI+MTYuPC90ZXh0Pjx0ZXh0IGZpbGw9IiMwMDAwMDAiIGZvbnQtZmFtaWx5PSJzYW5zLXNlcmlmIiBmb250LXNpemU9IjEzIiBsZW5ndGhBZGp1c3Q9InNwYWNpbmciIHRleHRMZW5ndGg9IjE0OS41IiB4PSI4MDciIHk9IjcxMC42MDk0Ij4zLjEuMS4zLiBDb25maXJtIFVwZGF0ZTwvdGV4dD48L2c+PGxpbmUgc3R5bGU9InN0cm9rZTojMDAwMDAwO3N0cm9rZS13aWR0aDoxO3N0cm9rZS1kYXNoYXJyYXk6Mi4wLDIuMDsiIHgxPSIxMCIgeDI9IjEyNDUiIHkxPSI3MjMuMjM0NCIgeTI9IjcyMy4yMzQ0Ii8+PHRleHQgZmlsbD0iIzAwMDAwMCIgZm9udC1mYW1pbHk9InNhbnMtc2VyaWYiIGZvbnQtc2l6ZT0iMTEiIGZvbnQtd2VpZ2h0PSJib2xkIiBsZW5ndGhBZGp1c3Q9InNwYWNpbmciIHRleHRMZW5ndGg9IjExNS41IiB4PSIxNSIgeT0iNzMzLjYzMjgiPltHYW1lIERvZXMgTm90IEV4aXN0XTwvdGV4dD48ZyBjbGFzcz0ibWVzc2FnZSIgZGF0YS1wYXJ0aWNpcGFudC0xPSJCYWNrZW5kIiBkYXRhLXBhcnRpY2lwYW50LTI9IlJBV0ciPjxwb2x5Z29uIGZpbGw9IiMxODE4MTgiIHBvaW50cz0iMTAzNiw3NTEuOTIxOSwxMDQ2LDc1NS45MjE5LDEwMzYsNzU5LjkyMTksMTA0MCw3NTUuOTIxOSIgc3R5bGU9InN0cm9rZTojMTgxODE4O3N0cm9rZS13aWR0aDoxOyIvPjxsaW5lIHN0eWxlPSJzdHJva2U6IzE4MTgxODtzdHJva2Utd2lkdGg6MTsiIHgxPSI3NjYuNSIgeDI9IjEwNDIiIHkxPSI3NTUuOTIxOSIgeTI9Ijc1NS45MjE5Ii8+PHRleHQgZmlsbD0iIzAwMDAwMCIgZm9udC1mYW1pbHk9InNhbnMtc2VyaWYiIGZvbnQtc2l6ZT0iMTMiIGZvbnQtd2VpZ2h0PSJib2xkIiBsZW5ndGhBZGp1c3Q9InNwYWNpbmciIHRleHRMZW5ndGg9IjE5LjUiIHg9Ijc3My41IiB5PSI3NTIuMjk2OSI+MTcuPC90ZXh0Pjx0ZXh0IGZpbGw9IiMwMDAwMDAiIGZvbnQtZmFtaWx5PSJzYW5zLXNlcmlmIiBmb250LXNpemU9IjEzIiBsZW5ndGhBZGp1c3Q9InNwYWNpbmciIHRleHRMZW5ndGg9IjIzNCIgeD0iNzk3IiB5PSI3NTIuMjk2OSI+My4xLjIuIFJlcXVlc3QgR2FtZSBEZXRhaWxzIGZyb20gQVBJPC90ZXh0PjwvZz48cGF0aCBkPSJNMjAsNzcwLjkyMTkgTDg0LjUsNzcwLjkyMTkgTDg0LjUsNzc2LjgzNTkgTDc0LjUsNzg2LjgzNTkgTDIwLDc4Ni44MzU5IEwyMCw3NzAuOTIxOSIgZmlsbD0iI0VFRUVFRSIgc3R5bGU9InN0cm9rZTojMDAwMDAwO3N0cm9rZS13aWR0aDoxLjU7Ii8+PHJlY3QgZmlsbD0ibm9uZSIgaGVpZ2h0PSIyODAuOTE0MSIgc3R5bGU9InN0cm9rZTojMDAwMDAwO3N0cm9rZS13aWR0aDoxLjU7IiB3aWR0aD0iMTIxNSIgeD0iMjAiIHk9Ijc3MC45MjE5Ii8+PHRleHQgZmlsbD0iIzU1NTU1NSIgZm9udC1mYW1pbHk9InNhbnMtc2VyaWYiIGZvbnQtc2l6ZT0iMTMiIGZvbnQtd2VpZ2h0PSJib2xkIiBsZW5ndGhBZGp1c3Q9InNwYWNpbmciIHRleHRMZW5ndGg9IjE5LjUiIHg9IjM1IiB5PSI3ODQuMjEwOSI+YWx0PC90ZXh0Pjx0ZXh0IGZpbGw9IiMwMDAwMDAiIGZvbnQtZmFtaWx5PSJzYW5zLXNlcmlmIiBmb250LXNpemU9IjExIiBmb250LXdlaWdodD0iYm9sZCIgbGVuZ3RoQWRqdXN0PSJzcGFjaW5nIiB0ZXh0TGVuZ3RoPSIxNTkuNSIgeD0iOTkuNSIgeT0iNzgzLjMyMDMiPltSQVdHIEFQSSBSZXNwb25kcyB3aXRoIERhdGFdPC90ZXh0PjxnIGNsYXNzPSJtZXNzYWdlIiBkYXRhLXBhcnRpY2lwYW50LTE9IlJBV0ciIGRhdGEtcGFydGljaXBhbnQtMj0iQmFja2VuZCI+PHBvbHlnb24gZmlsbD0iIzE4MTgxOCIgcG9pbnRzPSI3NzcuNSw4MDIuNzUsNzY3LjUsODA2Ljc1LDc3Ny41LDgxMC43NSw3NzMuNSw4MDYuNzUiIHN0eWxlPSJzdHJva2U6IzE4MTgxODtzdHJva2Utd2lkdGg6MTsiLz48bGluZSBzdHlsZT0ic3Ryb2tlOiMxODE4MTg7c3Ryb2tlLXdpZHRoOjE7c3Ryb2tlLWRhc2hhcnJheToyLjAsMi4wOyIgeDE9Ijc3MS41IiB4Mj0iMTA0NyIgeTE9IjgwNi43NSIgeTI9IjgwNi43NSIvPjx0ZXh0IGZpbGw9IiMwMDAwMDAiIGZvbnQtZmFtaWx5PSJzYW5zLXNlcmlmIiBmb250LXNpemU9IjEzIiBmb250LXdlaWdodD0iYm9sZCIgbGVuZ3RoQWRqdXN0PSJzcGFjaW5nIiB0ZXh0TGVuZ3RoPSIxOS41IiB4PSI3ODMuNSIgeT0iODAzLjEyNSI+MTguPC90ZXh0Pjx0ZXh0IGZpbGw9IiMwMDAwMDAiIGZvbnQtZmFtaWx5PSJzYW5zLXNlcmlmIiBmb250LXNpemU9IjEzIiBsZW5ndGhBZGp1c3Q9InNwYWNpbmciIHRleHRMZW5ndGg9IjE2Mi41IiB4PSI4MDciIHk9IjgwMy4xMjUiPjMuMS4yLjEuIFJldHVybiBHYW1lIERhdGE8L3RleHQ+PC9nPjxnIGNsYXNzPSJtZXNzYWdlIiBkYXRhLXBhcnRpY2lwYW50LTE9IkJhY2tlbmQiIGRhdGEtcGFydGljaXBhbnQtMj0iREIiPjxwb2x5Z29uIGZpbGw9IiMxODE4MTgiIHBvaW50cz0iMTE2NC41LDgzMC42NjQxLDExNzQuNSw4MzQuNjY0MSwxMTY0LjUsODM4LjY2NDEsMTE2OC41LDgzNC42NjQxIiBzdHlsZT0ic3Ryb2tlOiMxODE4MTg7c3Ryb2tlLXdpZHRoOjE7Ii8+PGxpbmUgc3R5bGU9InN0cm9rZTojMTgxODE4O3N0cm9rZS13aWR0aDoxOyIgeDE9Ijc2Ni41IiB4Mj0iMTE3MC41IiB5MT0iODM0LjY2NDEiIHkyPSI4MzQuNjY0MSIvPjx0ZXh0IGZpbGw9IiMwMDAwMDAiIGZvbnQtZmFtaWx5PSJzYW5zLXNlcmlmIiBmb250LXNpemU9IjEzIiBmb250LXdlaWdodD0iYm9sZCIgbGVuZ3RoQWRqdXN0PSJzcGFjaW5nIiB0ZXh0TGVuZ3RoPSIxOS41IiB4PSI3NzMuNSIgeT0iODMxLjAzOTEiPjE5LjwvdGV4dD48dGV4dCBmaWxsPSIjMDAwMDAwIiBmb250LWZhbWlseT0ic2Fucy1zZXJpZiIgZm9udC1zaXplPSIxMyIgbGVuZ3RoQWRqdXN0PSJzcGFjaW5nIiB0ZXh0TGVuZ3RoPSIzMDUuNSIgeD0iNzk3IiB5PSI4MzEuMDM5MSI+My4xLjIuMi4gU2F2ZSBEYXRhIHRvICdQZW5kaW5nR2FtZXMnIENvbGxlY3Rpb248L3RleHQ+PC9nPjxnIGNsYXNzPSJtZXNzYWdlIiBkYXRhLXBhcnRpY2lwYW50LTE9IkRCIiBkYXRhLXBhcnRpY2lwYW50LTI9IkJhY2tlbmQiPjxwb2x5Z29uIGZpbGw9IiMxODE4MTgiIHBvaW50cz0iNzc3LjUsODU4LjU3ODEsNzY3LjUsODYyLjU3ODEsNzc3LjUsODY2LjU3ODEsNzczLjUsODYyLjU3ODEiIHN0eWxlPSJzdHJva2U6IzE4MTgxODtzdHJva2Utd2lkdGg6MTsiLz48bGluZSBzdHlsZT0ic3Ryb2tlOiMxODE4MTg7c3Ryb2tlLXdpZHRoOjE7c3Ryb2tlLWRhc2hhcnJheToyLjAsMi4wOyIgeDE9Ijc3MS41IiB4Mj0iMTE3NS41IiB5MT0iODYyLjU3ODEiIHkyPSI4NjIuNTc4MSIvPjx0ZXh0IGZpbGw9IiMwMDAwMDAiIGZvbnQtZmFtaWx5PSJzYW5zLXNlcmlmIiBmb250LXNpemU9IjEzIiBmb250LXdlaWdodD0iYm9sZCIgbGVuZ3RoQWRqdXN0PSJzcGFjaW5nIiB0ZXh0TGVuZ3RoPSIxOS41IiB4PSI3ODMuNSIgeT0iODU4Ljk1MzEiPjIwLjwvdGV4dD48dGV4dCBmaWxsPSIjMDAwMDAwIiBmb250LWZhbWlseT0ic2Fucy1zZXJpZiIgZm9udC1zaXplPSIxMyIgbGVuZ3RoQWRqdXN0PSJzcGFjaW5nIiB0ZXh0TGVuZ3RoPSIxNDkuNSIgeD0iODA3IiB5PSI4NTguOTUzMSI+My4xLjIuMy4gQ29uZmlybSBJbnNlcnQ8L3RleHQ+PC9nPjxsaW5lIHN0eWxlPSJzdHJva2U6IzAwMDAwMDtzdHJva2Utd2lkdGg6MTtzdHJva2UtZGFzaGFycmF5OjIuMCwyLjA7IiB4MT0iMjAiIHgyPSIxMjM1IiB5MT0iODcxLjU3ODEiIHkyPSI4NzEuNTc4MSIvPjx0ZXh0IGZpbGw9IiMwMDAwMDAiIGZvbnQtZmFtaWx5PSJzYW5zLXNlcmlmIiBmb250LXNpemU9IjExIiBmb250LXdlaWdodD0iYm9sZCIgbGVuZ3RoQWRqdXN0PSJzcGFjaW5nIiB0ZXh0TGVuZ3RoPSIxODEuNSIgeD0iMjUiIHk9Ijg4MS45NzY2Ij5bUkFXRyBBUEkgRmFpbHMgb3IgTm8gRGF0YSBGb3VuZF08L3RleHQ+PGcgY2xhc3M9Im1lc3NhZ2UiIGRhdGEtcGFydGljaXBhbnQtMT0iQmFja2VuZCIgZGF0YS1wYXJ0aWNpcGFudC0yPSJVSSI+PHBvbHlnb24gZmlsbD0iIzE4MTgxOCIgcG9pbnRzPSIzNTYsOTAwLjI2NTYsMzQ2LDkwNC4yNjU2LDM1Niw5MDguMjY1NiwzNTIsOTA0LjI2NTYiIHN0eWxlPSJzdHJva2U6IzE4MTgxODtzdHJva2Utd2lkdGg6MTsiLz48bGluZSBzdHlsZT0ic3Ryb2tlOiMxODE4MTg7c3Ryb2tlLXdpZHRoOjE7c3Ryb2tlLWRhc2hhcnJheToyLjAsMi4wOyIgeDE9IjM1MCIgeDI9Ijc1NS41IiB5MT0iOTA0LjI2NTYiIHkyPSI5MDQuMjY1NiIvPjx0ZXh0IGZpbGw9IiMwMDAwMDAiIGZvbnQtZmFtaWx5PSJzYW5zLXNlcmlmIiBmb250LXNpemU9IjEzIiBmb250LXdlaWdodD0iYm9sZCIgbGVuZ3RoQWRqdXN0PSJzcGFjaW5nIiB0ZXh0TGVuZ3RoPSIxOS41IiB4PSIzNjIiIHk9IjkwMC42NDA2Ij4yMS48L3RleHQ+PHRleHQgZmlsbD0iIzAwMDAwMCIgZm9udC1mYW1pbHk9InNhbnMtc2VyaWYiIGZvbnQtc2l6ZT0iMTMiIGxlbmd0aEFkanVzdD0ic3BhY2luZyIgdGV4dExlbmd0aD0iMTg4LjUiIHg9IjM4NS41IiB5PSI5MDAuNjQwNiI+My4xLjIuNC4gTm90aWZ5IFVJIG9mIGZhaWx1cmU8L3RleHQ+PC9nPjxnIGNsYXNzPSJtZXNzYWdlIiBkYXRhLXBhcnRpY2lwYW50LTE9IlVJIiBkYXRhLXBhcnRpY2lwYW50LTI9IlVzZXIiPjxwb2x5Z29uIGZpbGw9IiMxODE4MTgiIHBvaW50cz0iNTgsOTI4LjE3OTcsNDgsOTMyLjE3OTcsNTgsOTM2LjE3OTcsNTQsOTMyLjE3OTciIHN0eWxlPSJzdHJva2U6IzE4MTgxODtzdHJva2Utd2lkdGg6MTsiLz48bGluZSBzdHlsZT0ic3Ryb2tlOiMxODE4MTg7c3Ryb2tlLXdpZHRoOjE7IiB4MT0iNTIiIHgyPSIzMzQiIHkxPSI5MzIuMTc5NyIgeTI9IjkzMi4xNzk3Ii8+PHRleHQgZmlsbD0iIzAwMDAwMCIgZm9udC1mYW1pbHk9InNhbnMtc2VyaWYiIGZvbnQtc2l6ZT0iMTMiIGZvbnQtd2VpZ2h0PSJib2xkIiBsZW5ndGhBZGp1c3Q9InNwYWNpbmciIHRleHRMZW5ndGg9IjE5LjUiIHg9IjY0IiB5PSI5MjguNTU0NyI+MjIuPC90ZXh0Pjx0ZXh0IGZpbGw9IiMwMDAwMDAiIGZvbnQtZmFtaWx5PSJzYW5zLXNlcmlmIiBmb250LXNpemU9IjEzIiBsZW5ndGhBZGp1c3Q9InNwYWNpbmciIHRleHRMZW5ndGg9IjI0MC41IiB4PSI4Ny41IiB5PSI5MjguNTU0NyI+My4xLjIuNS4gUHJvbXB0IGZvciBNYW51YWwgU3VibWlzc2lvbjwvdGV4dD48L2c+PGcgY2xhc3M9Im1lc3NhZ2UiIGRhdGEtcGFydGljaXBhbnQtMT0iVXNlciIgZGF0YS1wYXJ0aWNpcGFudC0yPSJVSSI+PHBvbHlnb24gZmlsbD0iIzE4MTgxOCIgcG9pbnRzPSIzMjMsOTU2LjA5MzgsMzMzLDk2MC4wOTM4LDMyMyw5NjQuMDkzOCwzMjcsOTYwLjA5MzgiIHN0eWxlPSJzdHJva2U6IzE4MTgxODtzdHJva2Utd2lkdGg6MTsiLz48bGluZSBzdHlsZT0ic3Ryb2tlOiMxODE4MTg7c3Ryb2tlLXdpZHRoOjE7IiB4MT0iNDciIHgyPSIzMjkiIHkxPSI5NjAuMDkzOCIgeTI9Ijk2MC4wOTM4Ii8+PHRleHQgZmlsbD0iIzAwMDAwMCIgZm9udC1mYW1pbHk9InNhbnMtc2VyaWYiIGZvbnQtc2l6ZT0iMTMiIGZvbnQtd2VpZ2h0PSJib2xkIiBsZW5ndGhBZGp1c3Q9InNwYWNpbmciIHRleHRMZW5ndGg9IjE5LjUiIHg9IjU0IiB5PSI5NTYuNDY4OCI+MjMuPC90ZXh0Pjx0ZXh0IGZpbGw9IiMwMDAwMDAiIGZvbnQtZmFtaWx5PSJzYW5zLXNlcmlmIiBmb250LXNpemU9IjEzIiBsZW5ndGhBZGp1c3Q9InNwYWNpbmciIHRleHRMZW5ndGg9IjIzNCIgeD0iNzcuNSIgeT0iOTU2LjQ2ODgiPjMuMS4yLjYuIEVudGVyIEdhbWUgRGV0YWlscyBNYW51YWxseTwvdGV4dD48L2c+PGcgY2xhc3M9Im1lc3NhZ2UiIGRhdGEtcGFydGljaXBhbnQtMT0iVUkiIGRhdGEtcGFydGljaXBhbnQtMj0iQmFja2VuZCI+PHBvbHlnb24gZmlsbD0iIzE4MTgxOCIgcG9pbnRzPSI3NDQuNSw5ODQuMDA3OCw3NTQuNSw5ODguMDA3OCw3NDQuNSw5OTIuMDA3OCw3NDguNSw5ODguMDA3OCIgc3R5bGU9InN0cm9rZTojMTgxODE4O3N0cm9rZS13aWR0aDoxOyIvPjxsaW5lIHN0eWxlPSJzdHJva2U6IzE4MTgxODtzdHJva2Utd2lkdGg6MTsiIHgxPSIzNDUiIHgyPSI3NTAuNSIgeTE9Ijk4OC4wMDc4IiB5Mj0iOTg4LjAwNzgiLz48dGV4dCBmaWxsPSIjMDAwMDAwIiBmb250LWZhbWlseT0ic2Fucy1zZXJpZiIgZm9udC1zaXplPSIxMyIgZm9udC13ZWlnaHQ9ImJvbGQiIGxlbmd0aEFkanVzdD0ic3BhY2luZyIgdGV4dExlbmd0aD0iMTkuNSIgeD0iMzUyIiB5PSI5ODQuMzgyOCI+MjQuPC90ZXh0Pjx0ZXh0IGZpbGw9IiMwMDAwMDAiIGZvbnQtZmFtaWx5PSJzYW5zLXNlcmlmIiBmb250LXNpemU9IjEzIiBsZW5ndGhBZGp1c3Q9InNwYWNpbmciIHRleHRMZW5ndGg9IjE5NSIgeD0iMzc1LjUiIHk9Ijk4NC4zODI4Ij4zLjEuMi43LiBTZW5kIE1hbnVhbCBHYW1lIERhdGE8L3RleHQ+PC9nPjxnIGNsYXNzPSJtZXNzYWdlIiBkYXRhLXBhcnRpY2lwYW50LTE9IkJhY2tlbmQiIGRhdGEtcGFydGljaXBhbnQtMj0iREIiPjxwb2x5Z29uIGZpbGw9IiMxODE4MTgiIHBvaW50cz0iMTE2NC41LDEwMTEuOTIxOSwxMTc0LjUsMTAxNS45MjE5LDExNjQuNSwxMDE5LjkyMTksMTE2OC41LDEwMTUuOTIxOSIgc3R5bGU9InN0cm9rZTojMTgxODE4O3N0cm9rZS13aWR0aDoxOyIvPjxsaW5lIHN0eWxlPSJzdHJva2U6IzE4MTgxODtzdHJva2Utd2lkdGg6MTsiIHgxPSI3NjYuNSIgeDI9IjExNzAuNSIgeTE9IjEwMTUuOTIxOSIgeTI9IjEwMTUuOTIxOSIvPjx0ZXh0IGZpbGw9IiMwMDAwMDAiIGZvbnQtZmFtaWx5PSJzYW5zLXNlcmlmIiBmb250LXNpemU9IjEzIiBmb250LXdlaWdodD0iYm9sZCIgbGVuZ3RoQWRqdXN0PSJzcGFjaW5nIiB0ZXh0TGVuZ3RoPSIxOS41IiB4PSI3NzMuNSIgeT0iMTAxMi4yOTY5Ij4yNS48L3RleHQ+PHRleHQgZmlsbD0iIzAwMDAwMCIgZm9udC1mYW1pbHk9InNhbnMtc2VyaWYiIGZvbnQtc2l6ZT0iMTMiIGxlbmd0aEFkanVzdD0ic3BhY2luZyIgdGV4dExlbmd0aD0iMzA1LjUiIHg9Ijc5NyIgeT0iMTAxMi4yOTY5Ij4zLjEuMi44LiBJbnNlcnQgTWFudWFsIERhdGEgaW50byAnUGVuZGluZ0dhbWVzJzwvdGV4dD48L2c+PGcgY2xhc3M9Im1lc3NhZ2UiIGRhdGEtcGFydGljaXBhbnQtMT0iREIiIGRhdGEtcGFydGljaXBhbnQtMj0iQmFja2VuZCI+PHBvbHlnb24gZmlsbD0iIzE4MTgxOCIgcG9pbnRzPSI3NzcuNSwxMDM5LjgzNTksNzY3LjUsMTA0My44MzU5LDc3Ny41LDEwNDcuODM1OSw3NzMuNSwxMDQzLjgzNTkiIHN0eWxlPSJzdHJva2U6IzE4MTgxODtzdHJva2Utd2lkdGg6MTsiLz48bGluZSBzdHlsZT0ic3Ryb2tlOiMxODE4MTg7c3Ryb2tlLXdpZHRoOjE7c3Ryb2tlLWRhc2hhcnJheToyLjAsMi4wOyIgeDE9Ijc3MS41IiB4Mj0iMTE3NS41IiB5MT0iMTA0My44MzU5IiB5Mj0iMTA0My44MzU5Ii8+PHRleHQgZmlsbD0iIzAwMDAwMCIgZm9udC1mYW1pbHk9InNhbnMtc2VyaWYiIGZvbnQtc2l6ZT0iMTMiIGZvbnQtd2VpZ2h0PSJib2xkIiBsZW5ndGhBZGp1c3Q9InNwYWNpbmciIHRleHRMZW5ndGg9IjE5LjUiIHg9Ijc4My41IiB5PSIxMDQwLjIxMDkiPjI2LjwvdGV4dD48dGV4dCBmaWxsPSIjMDAwMDAwIiBmb250LWZhbWlseT0ic2Fucy1zZXJpZiIgZm9udC1zaXplPSIxMyIgbGVuZ3RoQWRqdXN0PSJzcGFjaW5nIiB0ZXh0TGVuZ3RoPSIxNDkuNSIgeD0iODA3IiB5PSIxMDQwLjIxMDkiPjMuMS4yLjkuIENvbmZpcm0gSW5zZXJ0PC90ZXh0PjwvZz48ZyBjbGFzcz0ibWVzc2FnZSIgZGF0YS1wYXJ0aWNpcGFudC0xPSJCYWNrZW5kIiBkYXRhLXBhcnRpY2lwYW50LTI9IlVJIj48cG9seWdvbiBmaWxsPSIjMTgxODE4IiBwb2ludHM9IjM1NiwxMDgxLjc1LDM0NiwxMDg1Ljc1LDM1NiwxMDg5Ljc1LDM1MiwxMDg1Ljc1IiBzdHlsZT0ic3Ryb2tlOiMxODE4MTg7c3Ryb2tlLXdpZHRoOjE7Ii8+PGxpbmUgc3R5bGU9InN0cm9rZTojMTgxODE4O3N0cm9rZS13aWR0aDoxO3N0cm9rZS1kYXNoYXJyYXk6Mi4wLDIuMDsiIHgxPSIzNTAiIHgyPSI3NjAuNSIgeTE9IjEwODUuNzUiIHkyPSIxMDg1Ljc1Ii8+PHRleHQgZmlsbD0iIzAwMDAwMCIgZm9udC1mYW1pbHk9InNhbnMtc2VyaWYiIGZvbnQtc2l6ZT0iMTMiIGZvbnQtd2VpZ2h0PSJib2xkIiBsZW5ndGhBZGp1c3Q9InNwYWNpbmciIHRleHRMZW5ndGg9IjE5LjUiIHg9IjM2MiIgeT0iMTA4Mi4xMjUiPjI3LjwvdGV4dD48dGV4dCBmaWxsPSIjMDAwMDAwIiBmb250LWZhbWlseT0ic2Fucy1zZXJpZiIgZm9udC1zaXplPSIxMyIgbGVuZ3RoQWRqdXN0PSJzcGFjaW5nIiB0ZXh0TGVuZ3RoPSIzNjQiIHg9IjM4NS41IiB5PSIxMDgyLjEyNSI+My4yLiBTZW5kIFRvYXN0IE5vdGlmaWNhdGlvbiAoIlN1Ym1pdHRlZCBmb3IgYXBwcm92YWwhIik8L3RleHQ+PC9nPjxnIGNsYXNzPSJtZXNzYWdlIiBkYXRhLXBhcnRpY2lwYW50LTE9IlVJIiBkYXRhLXBhcnRpY2lwYW50LTI9IlVzZXIiPjxwb2x5Z29uIGZpbGw9IiMxODE4MTgiIHBvaW50cz0iNTgsMTEwOS42NjQxLDQ4LDExMTMuNjY0MSw1OCwxMTE3LjY2NDEsNTQsMTExMy42NjQxIiBzdHlsZT0ic3Ryb2tlOiMxODE4MTg7c3Ryb2tlLXdpZHRoOjE7Ii8+PGxpbmUgc3R5bGU9InN0cm9rZTojMTgxODE4O3N0cm9rZS13aWR0aDoxOyIgeDE9IjUyIiB4Mj0iMzM5IiB5MT0iMTExMy42NjQxIiB5Mj0iMTExMy42NjQxIi8+PHRleHQgZmlsbD0iIzAwMDAwMCIgZm9udC1mYW1pbHk9InNhbnMtc2VyaWYiIGZvbnQtc2l6ZT0iMTMiIGZvbnQtd2VpZ2h0PSJib2xkIiBsZW5ndGhBZGp1c3Q9InNwYWNpbmciIHRleHRMZW5ndGg9IjE5LjUiIHg9IjY0IiB5PSIxMTEwLjAzOTEiPjI4LjwvdGV4dD48dGV4dCBmaWxsPSIjMDAwMDAwIiBmb250LWZhbWlseT0ic2Fucy1zZXJpZiIgZm9udC1zaXplPSIxMyIgbGVuZ3RoQWRqdXN0PSJzcGFjaW5nIiB0ZXh0TGVuZ3RoPSIxNjIuNSIgeD0iODcuNSIgeT0iMTExMC4wMzkxIj4zLjMuIERpc3BsYXkgTm90aWZpY2F0aW9uPC90ZXh0PjwvZz48cmVjdCBmaWxsPSIjRUVFRUVFIiBoZWlnaHQ9IjMiIHN0eWxlPSJzdHJva2U6I0VFRUVFRTtzdHJva2Utd2lkdGg6MTsiIHdpZHRoPSIxMjU1IiB4PSIwIiB5PSIxMTQxLjYyMTEiLz48bGluZSBzdHlsZT0ic3Ryb2tlOiMwMDAwMDA7c3Ryb2tlLXdpZHRoOjE7IiB4MT0iMCIgeDI9IjEyNTUiIHkxPSIxMTQxLjYyMTEiIHkyPSIxMTQxLjYyMTEiLz48bGluZSBzdHlsZT0ic3Ryb2tlOiMwMDAwMDA7c3Ryb2tlLXdpZHRoOjE7IiB4MT0iMCIgeDI9IjEyNTUiIHkxPSIxMTQ0LjYyMTEiIHkyPSIxMTQ0LjYyMTEiLz48cmVjdCBmaWxsPSIjRUVFRUVFIiBoZWlnaHQ9IjIxLjkxNDEiIHN0eWxlPSJzdHJva2U6IzAwMDAwMDtzdHJva2Utd2lkdGg6MjsiIHdpZHRoPSIxNDQiIHg9IjU1NS41IiB5PSIxMTMxLjY2NDEiLz48dGV4dCBmaWxsPSIjMDAwMDAwIiBmb250LWZhbWlseT0ic2Fucy1zZXJpZiIgZm9udC1zaXplPSIxMyIgZm9udC13ZWlnaHQ9ImJvbGQiIGxlbmd0aEFkanVzdD0ic3BhY2luZyIgdGV4dExlbmd0aD0iMTIzLjUiIHg9IjU2MS41IiB5PSIxMTQ3Ljk1MzEiPkFkbWluIEFwcHJvdmFsIEZsb3c8L3RleHQ+PGcgY2xhc3M9Im1lc3NhZ2UiIGRhdGEtcGFydGljaXBhbnQtMT0iQWRtaW4iIGRhdGEtcGFydGljaXBhbnQtMj0iVUkiPjxwb2x5Z29uIGZpbGw9IiMxODE4MTgiIHBvaW50cz0iMzIzLDExNzkuNDkyMiwzMzMsMTE4My40OTIyLDMyMywxMTg3LjQ5MjIsMzI3LDExODMuNDkyMiIgc3R5bGU9InN0cm9rZTojMTgxODE4O3N0cm9rZS13aWR0aDoxOyIvPjxsaW5lIHN0eWxlPSJzdHJva2U6IzE4MTgxODtzdHJva2Utd2lkdGg6MTsiIHgxPSI5NC41IiB4Mj0iMzI5IiB5MT0iMTE4My40OTIyIiB5Mj0iMTE4My40OTIyIi8+PHRleHQgZmlsbD0iIzAwMDAwMCIgZm9udC1mYW1pbHk9InNhbnMtc2VyaWYiIGZvbnQtc2l6ZT0iMTMiIGZvbnQtd2VpZ2h0PSJib2xkIiBsZW5ndGhBZGp1c3Q9InNwYWNpbmciIHRleHRMZW5ndGg9IjE5LjUiIHg9IjEwMS41IiB5PSIxMTc5Ljg2NzIiPjI5LjwvdGV4dD48dGV4dCBmaWxsPSIjMDAwMDAwIiBmb250LWZhbWlseT0ic2Fucy1zZXJpZiIgZm9udC1zaXplPSIxMyIgbGVuZ3RoQWRqdXN0PSJzcGFjaW5nIiB0ZXh0TGVuZ3RoPSIxMjMuNSIgeD0iMTI1IiB5PSIxMTc5Ljg2NzIiPjQuIFZpc2l0IEFkbWluIFBhZ2U8L3RleHQ+PC9nPjxnIGNsYXNzPSJtZXNzYWdlIiBkYXRhLXBhcnRpY2lwYW50LTE9IlVJIiBkYXRhLXBhcnRpY2lwYW50LTI9IkJhY2tlbmQiPjxwb2x5Z29uIGZpbGw9IiMxODE4MTgiIHBvaW50cz0iNzQ0LjUsMTIwNy40MDYzLDc1NC41LDEyMTEuNDA2Myw3NDQuNSwxMjE1LjQwNjMsNzQ4LjUsMTIxMS40MDYzIiBzdHlsZT0ic3Ryb2tlOiMxODE4MTg7c3Ryb2tlLXdpZHRoOjE7Ii8+PGxpbmUgc3R5bGU9InN0cm9rZTojMTgxODE4O3N0cm9rZS13aWR0aDoxOyIgeDE9IjM0NSIgeDI9Ijc1MC41IiB5MT0iMTIxMS40MDYzIiB5Mj0iMTIxMS40MDYzIi8+PHRleHQgZmlsbD0iIzAwMDAwMCIgZm9udC1mYW1pbHk9InNhbnMtc2VyaWYiIGZvbnQtc2l6ZT0iMTMiIGZvbnQtd2VpZ2h0PSJib2xkIiBsZW5ndGhBZGp1c3Q9InNwYWNpbmciIHRleHRMZW5ndGg9IjE5LjUiIHg9IjM1MiIgeT0iMTIwNy43ODEzIj4zMC48L3RleHQ+PHRleHQgZmlsbD0iIzAwMDAwMCIgZm9udC1mYW1pbHk9InNhbnMtc2VyaWYiIGZvbnQtc2l6ZT0iMTMiIGxlbmd0aEFkanVzdD0ic3BhY2luZyIgdGV4dExlbmd0aD0iMTY5IiB4PSIzNzUuNSIgeT0iMTIwNy43ODEzIj40LjEuIFJlcXVlc3QgUGVuZGluZyBHYW1lczwvdGV4dD48L2c+PGcgY2xhc3M9Im1lc3NhZ2UiIGRhdGEtcGFydGljaXBhbnQtMT0iQmFja2VuZCIgZGF0YS1wYXJ0aWNpcGFudC0yPSJEQiI+PHBvbHlnb24gZmlsbD0iIzE4MTgxOCIgcG9pbnRzPSIxMTY0LjUsMTIzNS4zMjAzLDExNzQuNSwxMjM5LjMyMDMsMTE2NC41LDEyNDMuMzIwMywxMTY4LjUsMTIzOS4zMjAzIiBzdHlsZT0ic3Ryb2tlOiMxODE4MTg7c3Ryb2tlLXdpZHRoOjE7Ii8+PGxpbmUgc3R5bGU9InN0cm9rZTojMTgxODE4O3N0cm9rZS13aWR0aDoxOyIgeDE9Ijc2Ni41IiB4Mj0iMTE3MC41IiB5MT0iMTIzOS4zMjAzIiB5Mj0iMTIzOS4zMjAzIi8+PHRleHQgZmlsbD0iIzAwMDAwMCIgZm9udC1mYW1pbHk9InNhbnMtc2VyaWYiIGZvbnQtc2l6ZT0iMTMiIGZvbnQtd2VpZ2h0PSJib2xkIiBsZW5ndGhBZGp1c3Q9InNwYWNpbmciIHRleHRMZW5ndGg9IjE5LjUiIHg9Ijc3My41IiB5PSIxMjM1LjY5NTMiPjMxLjwvdGV4dD48dGV4dCBmaWxsPSIjMDAwMDAwIiBmb250LWZhbWlseT0ic2Fucy1zZXJpZiIgZm9udC1zaXplPSIxMyIgbGVuZ3RoQWRqdXN0PSJzcGFjaW5nIiB0ZXh0TGVuZ3RoPSIyNDciIHg9Ijc5NyIgeT0iMTIzNS42OTUzIj40LjEuMS4gRmV0Y2ggYWxsIHdpdGggc3RhdHVzPSdwZW5kaW5nJzwvdGV4dD48L2c+PGcgY2xhc3M9Im1lc3NhZ2UiIGRhdGEtcGFydGljaXBhbnQtMT0iREIiIGRhdGEtcGFydGljaXBhbnQtMj0iQmFja2VuZCI+PHBvbHlnb24gZmlsbD0iIzE4MTgxOCIgcG9pbnRzPSI3NzcuNSwxMjYzLjIzNDQsNzY3LjUsMTI2Ny4yMzQ0LDc3Ny41LDEyNzEuMjM0NCw3NzMuNSwxMjY3LjIzNDQiIHN0eWxlPSJzdHJva2U6IzE4MTgxODtzdHJva2Utd2lkdGg6MTsiLz48bGluZSBzdHlsZT0ic3Ryb2tlOiMxODE4MTg7c3Ryb2tlLXdpZHRoOjE7c3Ryb2tlLWRhc2hhcnJheToyLjAsMi4wOyIgeDE9Ijc3MS41IiB4Mj0iMTE3NS41IiB5MT0iMTI2Ny4yMzQ0IiB5Mj0iMTI2Ny4yMzQ0Ii8+PHRleHQgZmlsbD0iIzAwMDAwMCIgZm9udC1mYW1pbHk9InNhbnMtc2VyaWYiIGZvbnQtc2l6ZT0iMTMiIGZvbnQtd2VpZ2h0PSJib2xkIiBsZW5ndGhBZGp1c3Q9InNwYWNpbmciIHRleHRMZW5ndGg9IjE5LjUiIHg9Ijc4My41IiB5PSIxMjYzLjYwOTQiPjMyLjwvdGV4dD48dGV4dCBmaWxsPSIjMDAwMDAwIiBmb250LWZhbWlseT0ic2Fucy1zZXJpZiIgZm9udC1zaXplPSIxMyIgbGVuZ3RoQWRqdXN0PSJzcGFjaW5nIiB0ZXh0TGVuZ3RoPSIyMDgiIHg9IjgwNyIgeT0iMTI2My42MDk0Ij40LjEuMi4gUmV0dXJuIFBlbmRpbmcgR2FtZXMgTGlzdDwvdGV4dD48L2c+PGcgY2xhc3M9Im1lc3NhZ2UiIGRhdGEtcGFydGljaXBhbnQtMT0iQmFja2VuZCIgZGF0YS1wYXJ0aWNpcGFudC0yPSJVSSI+PHBvbHlnb24gZmlsbD0iIzE4MTgxOCIgcG9pbnRzPSIzNTYsMTI5MS4xNDg0LDM0NiwxMjk1LjE0ODQsMzU2LDEyOTkuMTQ4NCwzNTIsMTI5NS4xNDg0IiBzdHlsZT0ic3Ryb2tlOiMxODE4MTg7c3Ryb2tlLXdpZHRoOjE7Ii8+PGxpbmUgc3R5bGU9InN0cm9rZTojMTgxODE4O3N0cm9rZS13aWR0aDoxO3N0cm9rZS1kYXNoYXJyYXk6Mi4wLDIuMDsiIHgxPSIzNTAiIHgyPSI3NjAuNSIgeTE9IjEyOTUuMTQ4NCIgeTI9IjEyOTUuMTQ4NCIvPjx0ZXh0IGZpbGw9IiMwMDAwMDAiIGZvbnQtZmFtaWx5PSJzYW5zLXNlcmlmIiBmb250LXNpemU9IjEzIiBmb250LXdlaWdodD0iYm9sZCIgbGVuZ3RoQWRqdXN0PSJzcGFjaW5nIiB0ZXh0TGVuZ3RoPSIxOS41IiB4PSIzNjIiIHk9IjEyOTEuNTIzNCI+MzMuPC90ZXh0Pjx0ZXh0IGZpbGw9IiMwMDAwMDAiIGZvbnQtZmFtaWx5PSJzYW5zLXNlcmlmIiBmb250LXNpemU9IjEzIiBsZW5ndGhBZGp1c3Q9InNwYWNpbmciIHRleHRMZW5ndGg9IjE2Mi41IiB4PSIzODUuNSIgeT0iMTI5MS41MjM0Ij40LjIuIERpc3BsYXkgUGVuZGluZyBMaXN0PC90ZXh0PjwvZz48ZyBjbGFzcz0ibWVzc2FnZSIgZGF0YS1wYXJ0aWNpcGFudC0xPSJBZG1pbiIgZGF0YS1wYXJ0aWNpcGFudC0yPSJVSSI+PHBvbHlnb24gZmlsbD0iIzE4MTgxOCIgcG9pbnRzPSIzMjMsMTMxOS4wNjI1LDMzMywxMzIzLjA2MjUsMzIzLDEzMjcuMDYyNSwzMjcsMTMyMy4wNjI1IiBzdHlsZT0ic3Ryb2tlOiMxODE4MTg7c3Ryb2tlLXdpZHRoOjE7Ii8+PGxpbmUgc3R5bGU9InN0cm9rZTojMTgxODE4O3N0cm9rZS13aWR0aDoxOyIgeDE9Ijk0LjUiIHgyPSIzMjkiIHkxPSIxMzIzLjA2MjUiIHkyPSIxMzIzLjA2MjUiLz48dGV4dCBmaWxsPSIjMDAwMDAwIiBmb250LWZhbWlseT0ic2Fucy1zZXJpZiIgZm9udC1zaXplPSIxMyIgZm9udC13ZWlnaHQ9ImJvbGQiIGxlbmd0aEFkanVzdD0ic3BhY2luZyIgdGV4dExlbmd0aD0iMTkuNSIgeD0iMTAxLjUiIHk9IjEzMTkuNDM3NSI+MzQuPC90ZXh0Pjx0ZXh0IGZpbGw9IiMwMDAwMDAiIGZvbnQtZmFtaWx5PSJzYW5zLXNlcmlmIiBmb250LXNpemU9IjEzIiBsZW5ndGhBZGp1c3Q9InNwYWNpbmciIHRleHRMZW5ndGg9IjE4OC41IiB4PSIxMjUiIHk9IjEzMTkuNDM3NSI+NC4zLiBBcHByb3ZlIG9yIFJlamVjdCBhIEdhbWU8L3RleHQ+PC9nPjxnIGNsYXNzPSJtZXNzYWdlIiBkYXRhLXBhcnRpY2lwYW50LTE9IlVJIiBkYXRhLXBhcnRpY2lwYW50LTI9IkJhY2tlbmQiPjxwb2x5Z29uIGZpbGw9IiMxODE4MTgiIHBvaW50cz0iNzQ0LjUsMTM0Ni45NzY2LDc1NC41LDEzNTAuOTc2Niw3NDQuNSwxMzU0Ljk3NjYsNzQ4LjUsMTM1MC45NzY2IiBzdHlsZT0ic3Ryb2tlOiMxODE4MTg7c3Ryb2tlLXdpZHRoOjE7Ii8+PGxpbmUgc3R5bGU9InN0cm9rZTojMTgxODE4O3N0cm9rZS13aWR0aDoxOyIgeDE9IjM0NSIgeDI9Ijc1MC41IiB5MT0iMTM1MC45NzY2IiB5Mj0iMTM1MC45NzY2Ii8+PHRleHQgZmlsbD0iIzAwMDAwMCIgZm9udC1mYW1pbHk9InNhbnMtc2VyaWYiIGZvbnQtc2l6ZT0iMTMiIGZvbnQtd2VpZ2h0PSJib2xkIiBsZW5ndGhBZGp1c3Q9InNwYWNpbmciIHRleHRMZW5ndGg9IjE5LjUiIHg9IjM1MiIgeT0iMTM0Ny4zNTE2Ij4zNS48L3RleHQ+PHRleHQgZmlsbD0iIzAwMDAwMCIgZm9udC1mYW1pbHk9InNhbnMtc2VyaWYiIGZvbnQtc2l6ZT0iMTMiIGxlbmd0aEFkanVzdD0ic3BhY2luZyIgdGV4dExlbmd0aD0iMTU2IiB4PSIzNzUuNSIgeT0iMTM0Ny4zNTE2Ij40LjQuIFNlbmQgVXBkYXRlIFJlcXVlc3Q8L3RleHQ+PC9nPjxwYXRoIGQ9Ik02OTIsMTM2NS45NzY2IEw3NTYuNSwxMzY1Ljk3NjYgTDc1Ni41LDEzNzEuODkwNiBMNzQ2LjUsMTM4MS44OTA2IEw2OTIsMTM4MS44OTA2IEw2OTIsMTM2NS45NzY2IiBmaWxsPSIjRUVFRUVFIiBzdHlsZT0ic3Ryb2tlOiMwMDAwMDA7c3Ryb2tlLXdpZHRoOjEuNTsiLz48cmVjdCBmaWxsPSJub25lIiBoZWlnaHQ9Ijg1LjUxNTYiIHN0eWxlPSJzdHJva2U6IzAwMDAwMDtzdHJva2Utd2lkdGg6MS41OyIgd2lkdGg9IjU0MyIgeD0iNjkyIiB5PSIxMzY1Ljk3NjYiLz48dGV4dCBmaWxsPSIjNTU1NTU1IiBmb250LWZhbWlseT0ic2Fucy1zZXJpZiIgZm9udC1zaXplPSIxMyIgZm9udC13ZWlnaHQ9ImJvbGQiIGxlbmd0aEFkanVzdD0ic3BhY2luZyIgdGV4dExlbmd0aD0iMTkuNSIgeD0iNzA3IiB5PSIxMzc5LjI2NTYiPmFsdDwvdGV4dD48dGV4dCBmaWxsPSIjMDAwMDAwIiBmb250LWZhbWlseT0ic2Fucy1zZXJpZiIgZm9udC1zaXplPSIxMSIgZm9udC13ZWlnaHQ9ImJvbGQiIGxlbmd0aEFkanVzdD0ic3BhY2luZyIgdGV4dExlbmd0aD0iMTE1LjUiIHg9Ijc3MS41IiB5PSIxMzc4LjM3NSI+W0FkbWluIEFwcHJvdmVzIEdhbWVdPC90ZXh0PjxnIGNsYXNzPSJtZXNzYWdlIiBkYXRhLXBhcnRpY2lwYW50LTE9IkJhY2tlbmQiIGRhdGEtcGFydGljaXBhbnQtMj0iREIiPjxwb2x5Z29uIGZpbGw9IiMxODE4MTgiIHBvaW50cz0iMTE2NC41LDEzOTcuODA0NywxMTc0LjUsMTQwMS44MDQ3LDExNjQuNSwxNDA1LjgwNDcsMTE2OC41LDE0MDEuODA0NyIgc3R5bGU9InN0cm9rZTojMTgxODE4O3N0cm9rZS13aWR0aDoxOyIvPjxsaW5lIHN0eWxlPSJzdHJva2U6IzE4MTgxODtzdHJva2Utd2lkdGg6MTsiIHgxPSI3NjYuNSIgeDI9IjExNzAuNSIgeTE9IjE0MDEuODA0NyIgeTI9IjE0MDEuODA0NyIvPjx0ZXh0IGZpbGw9IiMwMDAwMDAiIGZvbnQtZmFtaWx5PSJzYW5zLXNlcmlmIiBmb250LXNpemU9IjEzIiBmb250LXdlaWdodD0iYm9sZCIgbGVuZ3RoQWRqdXN0PSJzcGFjaW5nIiB0ZXh0TGVuZ3RoPSIxOS41IiB4PSI3NzMuNSIgeT0iMTM5OC4xNzk3Ij4zNi48L3RleHQ+PHRleHQgZmlsbD0iIzAwMDAwMCIgZm9udC1mYW1pbHk9InNhbnMtc2VyaWYiIGZvbnQtc2l6ZT0iMTMiIGxlbmd0aEFkanVzdD0ic3BhY2luZyIgdGV4dExlbmd0aD0iMjA4IiB4PSI3OTciIHk9IjEzOTguMTc5NyI+NC40LjEuIEFkZCB0byAnR2FtZXMnIGNvbGxlY3Rpb248L3RleHQ+PC9nPjxsaW5lIHN0eWxlPSJzdHJva2U6IzAwMDAwMDtzdHJva2Utd2lkdGg6MTtzdHJva2UtZGFzaGFycmF5OjIuMCwyLjA7IiB4MT0iNjkyIiB4Mj0iMTIzNSIgeTE9IjE0MTAuODA0NyIgeTI9IjE0MTAuODA0NyIvPjx0ZXh0IGZpbGw9IiMwMDAwMDAiIGZvbnQtZmFtaWx5PSJzYW5zLXNlcmlmIiBmb250LXNpemU9IjExIiBmb250LXdlaWdodD0iYm9sZCIgbGVuZ3RoQWRqdXN0PSJzcGFjaW5nIiB0ZXh0TGVuZ3RoPSIxMTAiIHg9IjY5NyIgeT0iMTQyMS4yMDMxIj5bQWRtaW4gUmVqZWN0cyBHYW1lXTwvdGV4dD48ZyBjbGFzcz0ibWVzc2FnZSIgZGF0YS1wYXJ0aWNpcGFudC0xPSJCYWNrZW5kIiBkYXRhLXBhcnRpY2lwYW50LTI9IkRCIj48cG9seWdvbiBmaWxsPSIjMTgxODE4IiBwb2ludHM9IjExNjQuNSwxNDM5LjQ5MjIsMTE3NC41LDE0NDMuNDkyMiwxMTY0LjUsMTQ0Ny40OTIyLDExNjguNSwxNDQzLjQ5MjIiIHN0eWxlPSJzdHJva2U6IzE4MTgxODtzdHJva2Utd2lkdGg6MTsiLz48bGluZSBzdHlsZT0ic3Ryb2tlOiMxODE4MTg7c3Ryb2tlLXdpZHRoOjE7IiB4MT0iNzY2LjUiIHgyPSIxMTcwLjUiIHkxPSIxNDQzLjQ5MjIiIHkyPSIxNDQzLjQ5MjIiLz48dGV4dCBmaWxsPSIjMDAwMDAwIiBmb250LWZhbWlseT0ic2Fucy1zZXJpZiIgZm9udC1zaXplPSIxMyIgZm9udC13ZWlnaHQ9ImJvbGQiIGxlbmd0aEFkanVzdD0ic3BhY2luZyIgdGV4dExlbmd0aD0iMTkuNSIgeD0iNzczLjUiIHk9IjE0MzkuODY3MiI+MzcuPC90ZXh0Pjx0ZXh0IGZpbGw9IiMwMDAwMDAiIGZvbnQtZmFtaWx5PSJzYW5zLXNlcmlmIiBmb250LXNpemU9IjEzIiBsZW5ndGhBZGp1c3Q9InNwYWNpbmciIHRleHRMZW5ndGg9IjMzOCIgeD0iNzk3IiB5PSIxNDM5Ljg2NzIiPjQuNC4yLiBVcGRhdGUgc3RhdHVzIHRvICdyZWplY3RlZCcgaW4gJ1BlbmRpbmdHYW1lcyc8L3RleHQ+PC9nPjxnIGNsYXNzPSJtZXNzYWdlIiBkYXRhLXBhcnRpY2lwYW50LTE9IkRCIiBkYXRhLXBhcnRpY2lwYW50LTI9IkJhY2tlbmQiPjxwb2x5Z29uIGZpbGw9IiMxODE4MTgiIHBvaW50cz0iNzc3LjUsMTQ3NC40MDYzLDc2Ny41LDE0NzguNDA2Myw3NzcuNSwxNDgyLjQwNjMsNzczLjUsMTQ3OC40MDYzIiBzdHlsZT0ic3Ryb2tlOiMxODE4MTg7c3Ryb2tlLXdpZHRoOjE7Ii8+PGxpbmUgc3R5bGU9InN0cm9rZTojMTgxODE4O3N0cm9rZS13aWR0aDoxO3N0cm9rZS1kYXNoYXJyYXk6Mi4wLDIuMDsiIHgxPSI3NzEuNSIgeDI9IjExNzUuNSIgeTE9IjE0NzguNDA2MyIgeTI9IjE0NzguNDA2MyIvPjx0ZXh0IGZpbGw9IiMwMDAwMDAiIGZvbnQtZmFtaWx5PSJzYW5zLXNlcmlmIiBmb250LXNpemU9IjEzIiBmb250LXdlaWdodD0iYm9sZCIgbGVuZ3RoQWRqdXN0PSJzcGFjaW5nIiB0ZXh0TGVuZ3RoPSIxOS41IiB4PSI3ODMuNSIgeT0iMTQ3NC43ODEzIj4zOC48L3RleHQ+PHRleHQgZmlsbD0iIzAwMDAwMCIgZm9udC1mYW1pbHk9InNhbnMtc2VyaWYiIGZvbnQtc2l6ZT0iMTMiIGxlbmd0aEFkanVzdD0ic3BhY2luZyIgdGV4dExlbmd0aD0iMTIzLjUiIHg9IjgwNyIgeT0iMTQ3NC43ODEzIj40LjUuIENvbmZpcm0gVXBkYXRlPC90ZXh0PjwvZz48ZyBjbGFzcz0ibWVzc2FnZSIgZGF0YS1wYXJ0aWNpcGFudC0xPSJCYWNrZW5kIiBkYXRhLXBhcnRpY2lwYW50LTI9IlVJIj48cG9seWdvbiBmaWxsPSIjMTgxODE4IiBwb2ludHM9IjM1NiwxNTAyLjMyMDMsMzQ2LDE1MDYuMzIwMywzNTYsMTUxMC4zMjAzLDM1MiwxNTA2LjMyMDMiIHN0eWxlPSJzdHJva2U6IzE4MTgxODtzdHJva2Utd2lkdGg6MTsiLz48bGluZSBzdHlsZT0ic3Ryb2tlOiMxODE4MTg7c3Ryb2tlLXdpZHRoOjE7c3Ryb2tlLWRhc2hhcnJheToyLjAsMi4wOyIgeDE9IjM1MCIgeDI9Ijc2MC41IiB5MT0iMTUwNi4zMjAzIiB5Mj0iMTUwNi4zMjAzIi8+PHRleHQgZmlsbD0iIzAwMDAwMCIgZm9udC1mYW1pbHk9InNhbnMtc2VyaWYiIGZvbnQtc2l6ZT0iMTMiIGZvbnQtd2VpZ2h0PSJib2xkIiBsZW5ndGhBZGp1c3Q9InNwYWNpbmciIHRleHRMZW5ndGg9IjE5LjUiIHg9IjM2MiIgeT0iMTUwMi42OTUzIj4zOS48L3RleHQ+PHRleHQgZmlsbD0iIzAwMDAwMCIgZm9udC1mYW1pbHk9InNhbnMtc2VyaWYiIGZvbnQtc2l6ZT0iMTMiIGxlbmd0aEFkanVzdD0ic3BhY2luZyIgdGV4dExlbmd0aD0iMTYyLjUiIHg9IjM4NS41IiB5PSIxNTAyLjY5NTMiPjQuNi4gUmV0dXJuIEFjdGlvbiBSZXN1bHQ8L3RleHQ+PC9nPjxnIGNsYXNzPSJtZXNzYWdlIiBkYXRhLXBhcnRpY2lwYW50LTE9IlVJIiBkYXRhLXBhcnRpY2lwYW50LTI9IkFkbWluIj48cG9seWdvbiBmaWxsPSIjMTgxODE4IiBwb2ludHM9IjEwNS41LDE1MzAuMjM0NCw5NS41LDE1MzQuMjM0NCwxMDUuNSwxNTM4LjIzNDQsMTAxLjUsMTUzNC4yMzQ0IiBzdHlsZT0ic3Ryb2tlOiMxODE4MTg7c3Ryb2tlLXdpZHRoOjE7Ii8+PGxpbmUgc3R5bGU9InN0cm9rZTojMTgxODE4O3N0cm9rZS13aWR0aDoxOyIgeDE9Ijk5LjUiIHgyPSIzMzkiIHkxPSIxNTM0LjIzNDQiIHkyPSIxNTM0LjIzNDQiLz48dGV4dCBmaWxsPSIjMDAwMDAwIiBmb250LWZhbWlseT0ic2Fucy1zZXJpZiIgZm9udC1zaXplPSIxMyIgZm9udC13ZWlnaHQ9ImJvbGQiIGxlbmd0aEFkanVzdD0ic3BhY2luZyIgdGV4dExlbmd0aD0iMTkuNSIgeD0iMTExLjUiIHk9IjE1MzAuNjA5NCI+NDAuPC90ZXh0Pjx0ZXh0IGZpbGw9IiMwMDAwMDAiIGZvbnQtZmFtaWx5PSJzYW5zLXNlcmlmIiBmb250LXNpemU9IjEzIiBsZW5ndGhBZGp1c3Q9InNwYWNpbmciIHRleHRMZW5ndGg9IjE2OSIgeD0iMTM1IiB5PSIxNTMwLjYwOTQiPjQuNy4gRGlzcGxheSBVcGRhdGUgUmVzdWx0PC90ZXh0PjwvZz48cmVjdCBmaWxsPSIjRUVFRUVFIiBoZWlnaHQ9IjMiIHN0eWxlPSJzdHJva2U6I0VFRUVFRTtzdHJva2Utd2lkdGg6MTsiIHdpZHRoPSIxMjU1IiB4PSIwIiB5PSIxNTYyLjE5MTQiLz48bGluZSBzdHlsZT0ic3Ryb2tlOiMwMDAwMDA7c3Ryb2tlLXdpZHRoOjE7IiB4MT0iMCIgeDI9IjEyNTUiIHkxPSIxNTYyLjE5MTQiIHkyPSIxNTYyLjE5MTQiLz48bGluZSBzdHlsZT0ic3Ryb2tlOiMwMDAwMDA7c3Ryb2tlLXdpZHRoOjE7IiB4MT0iMCIgeDI9IjEyNTUiIHkxPSIxNTY1LjE5MTQiIHkyPSIxNTY1LjE5MTQiLz48cmVjdCBmaWxsPSIjRUVFRUVFIiBoZWlnaHQ9IjIxLjkxNDEiIHN0eWxlPSJzdHJva2U6IzAwMDAwMDtzdHJva2Utd2lkdGg6MjsiIHdpZHRoPSIxOTYiIHg9IjUyOS41IiB5PSIxNTUyLjIzNDQiLz48dGV4dCBmaWxsPSIjMDAwMDAwIiBmb250LWZhbWlseT0ic2Fucy1zZXJpZiIgZm9udC1zaXplPSIxMyIgZm9udC13ZWlnaHQ9ImJvbGQiIGxlbmd0aEFkanVzdD0ic3BhY2luZyIgdGV4dExlbmd0aD0iMTc1LjUiIHg9IjUzNS41IiB5PSIxNTY4LjUyMzQiPkdhbWUgRGV0YWlscyAmYW1wOyBSZXZpZXdzIEZsb3c8L3RleHQ+PGcgY2xhc3M9Im1lc3NhZ2UiIGRhdGEtcGFydGljaXBhbnQtMT0iVXNlciIgZGF0YS1wYXJ0aWNpcGFudC0yPSJVSSI+PHBvbHlnb24gZmlsbD0iIzE4MTgxOCIgcG9pbnRzPSIzMjMsMTYwMC4wNjI1LDMzMywxNjA0LjA2MjUsMzIzLDE2MDguMDYyNSwzMjcsMTYwNC4wNjI1IiBzdHlsZT0ic3Ryb2tlOiMxODE4MTg7c3Ryb2tlLXdpZHRoOjE7Ii8+PGxpbmUgc3R5bGU9InN0cm9rZTojMTgxODE4O3N0cm9rZS13aWR0aDoxOyIgeDE9IjQ3IiB4Mj0iMzI5IiB5MT0iMTYwNC4wNjI1IiB5Mj0iMTYwNC4wNjI1Ii8+PHRleHQgZmlsbD0iIzAwMDAwMCIgZm9udC1mYW1pbHk9InNhbnMtc2VyaWYiIGZvbnQtc2l6ZT0iMTMiIGZvbnQtd2VpZ2h0PSJib2xkIiBsZW5ndGhBZGp1c3Q9InNwYWNpbmciIHRleHRMZW5ndGg9IjE5LjUiIHg9IjU0IiB5PSIxNjAwLjQzNzUiPjQxLjwvdGV4dD48dGV4dCBmaWxsPSIjMDAwMDAwIiBmb250LWZhbWlseT0ic2Fucy1zZXJpZiIgZm9udC1zaXplPSIxMyIgbGVuZ3RoQWRqdXN0PSJzcGFjaW5nIiB0ZXh0TGVuZ3RoPSIxMzYuNSIgeD0iNzcuNSIgeT0iMTYwMC40Mzc1Ij41LiBTZWxlY3QgYSBHYW1lIENhcmQ8L3RleHQ+PC9nPjxnIGNsYXNzPSJtZXNzYWdlIiBkYXRhLXBhcnRpY2lwYW50LTE9IlVJIiBkYXRhLXBhcnRpY2lwYW50LTI9IlJBV0ciPjxwb2x5Z29uIGZpbGw9IiMxODE4MTgiIHBvaW50cz0iMTAzNiwxNjI3Ljk3NjYsMTA0NiwxNjMxLjk3NjYsMTAzNiwxNjM1Ljk3NjYsMTA0MCwxNjMxLjk3NjYiIHN0eWxlPSJzdHJva2U6IzE4MTgxODtzdHJva2Utd2lkdGg6MTsiLz48bGluZSBzdHlsZT0ic3Ryb2tlOiMxODE4MTg7c3Ryb2tlLXdpZHRoOjE7IiB4MT0iMzQ1IiB4Mj0iMTA0MiIgeTE9IjE2MzEuOTc2NiIgeTI9IjE2MzEuOTc2NiIvPjx0ZXh0IGZpbGw9IiMwMDAwMDAiIGZvbnQtZmFtaWx5PSJzYW5zLXNlcmlmIiBmb250LXNpemU9IjEzIiBmb250LXdlaWdodD0iYm9sZCIgbGVuZ3RoQWRqdXN0PSJzcGFjaW5nIiB0ZXh0TGVuZ3RoPSIxOS41IiB4PSIzNTIiIHk9IjE2MjguMzUxNiI+NDIuPC90ZXh0Pjx0ZXh0IGZpbGw9IiMwMDAwMDAiIGZvbnQtZmFtaWx5PSJzYW5zLXNlcmlmIiBmb250LXNpemU9IjEzIiBsZW5ndGhBZGp1c3Q9InNwYWNpbmciIHRleHRMZW5ndGg9IjI3OS41IiB4PSIzNzUuNSIgeT0iMTYyOC4zNTE2Ij41LjEuIEZldGNoIFJpY2ggRGV0YWlscyAoaWYgQVBJIGludGVncmF0ZWQpPC90ZXh0PjwvZz48ZyBjbGFzcz0ibWVzc2FnZSIgZGF0YS1wYXJ0aWNpcGFudC0xPSJVSSIgZGF0YS1wYXJ0aWNpcGFudC0yPSJEQiI+PHBvbHlnb24gZmlsbD0iIzE4MTgxOCIgcG9pbnRzPSIxMTY0LjUsMTY1NS44OTA2LDExNzQuNSwxNjU5Ljg5MDYsMTE2NC41LDE2NjMuODkwNiwxMTY4LjUsMTY1OS44OTA2IiBzdHlsZT0ic3Ryb2tlOiMxODE4MTg7c3Ryb2tlLXdpZHRoOjE7Ii8+PGxpbmUgc3R5bGU9InN0cm9rZTojMTgxODE4O3N0cm9rZS13aWR0aDoxOyIgeDE9IjM0NSIgeDI9IjExNzAuNSIgeTE9IjE2NTkuODkwNiIgeTI9IjE2NTkuODkwNiIvPjx0ZXh0IGZpbGw9IiMwMDAwMDAiIGZvbnQtZmFtaWx5PSJzYW5zLXNlcmlmIiBmb250LXNpemU9IjEzIiBmb250LXdlaWdodD0iYm9sZCIgbGVuZ3RoQWRqdXN0PSJzcGFjaW5nIiB0ZXh0TGVuZ3RoPSIxOS41IiB4PSIzNTIiIHk9IjE2NTYuMjY1NiI+NDMuPC90ZXh0Pjx0ZXh0IGZpbGw9IiMwMDAwMDAiIGZvbnQtZmFtaWx5PSJzYW5zLXNlcmlmIiBmb250LXNpemU9IjEzIiBsZW5ndGhBZGp1c3Q9InNwYWNpbmciIHRleHRMZW5ndGg9IjI2MCIgeD0iMzc1LjUiIHk9IjE2NTYuMjY1NiI+NS4yLiBGZXRjaCBHYW1lIERhdGEgYW5kIFJldmlld3MgZnJvbSBEQjwvdGV4dD48L2c+PGcgY2xhc3M9Im1lc3NhZ2UiIGRhdGEtcGFydGljaXBhbnQtMT0iVUkiIGRhdGEtcGFydGljaXBhbnQtMj0iVXNlciI+PHBvbHlnb24gZmlsbD0iIzE4MTgxOCIgcG9pbnRzPSI1OCwxNjgzLjgwNDcsNDgsMTY4Ny44MDQ3LDU4LDE2OTEuODA0Nyw1NCwxNjg3LjgwNDciIHN0eWxlPSJzdHJva2U6IzE4MTgxODtzdHJva2Utd2lkdGg6MTsiLz48bGluZSBzdHlsZT0ic3Ryb2tlOiMxODE4MTg7c3Ryb2tlLXdpZHRoOjE7IiB4MT0iNTIiIHgyPSIzMzkiIHkxPSIxNjg3LjgwNDciIHkyPSIxNjg3LjgwNDciLz48dGV4dCBmaWxsPSIjMDAwMDAwIiBmb250LWZhbWlseT0ic2Fucy1zZXJpZiIgZm9udC1zaXplPSIxMyIgZm9udC13ZWlnaHQ9ImJvbGQiIGxlbmd0aEFkanVzdD0ic3BhY2luZyIgdGV4dExlbmd0aD0iMTkuNSIgeD0iNjQiIHk9IjE2ODQuMTc5NyI+NDQuPC90ZXh0Pjx0ZXh0IGZpbGw9IiMwMDAwMDAiIGZvbnQtZmFtaWx5PSJzYW5zLXNlcmlmIiBmb250LXNpemU9IjEzIiBsZW5ndGhBZGp1c3Q9InNwYWNpbmciIHRleHRMZW5ndGg9IjIyMSIgeD0iODcuNSIgeT0iMTY4NC4xNzk3Ij41LjMuIFNob3cgR2FtZSBEZXRhaWxzIGFuZCBSZXZpZXdzPC90ZXh0PjwvZz48ZyBjbGFzcz0ibWVzc2FnZSIgZGF0YS1wYXJ0aWNpcGFudC0xPSJVc2VyIiBkYXRhLXBhcnRpY2lwYW50LTI9IlVJIj48cG9seWdvbiBmaWxsPSIjMTgxODE4IiBwb2ludHM9IjMyMywxNzExLjcxODgsMzMzLDE3MTUuNzE4OCwzMjMsMTcxOS43MTg4LDMyNywxNzE1LjcxODgiIHN0eWxlPSJzdHJva2U6IzE4MTgxODtzdHJva2Utd2lkdGg6MTsiLz48bGluZSBzdHlsZT0ic3Ryb2tlOiMxODE4MTg7c3Ryb2tlLXdpZHRoOjE7IiB4MT0iNDciIHgyPSIzMjkiIHkxPSIxNzE1LjcxODgiIHkyPSIxNzE1LjcxODgiLz48dGV4dCBmaWxsPSIjMDAwMDAwIiBmb250LWZhbWlseT0ic2Fucy1zZXJpZiIgZm9udC1zaXplPSIxMyIgZm9udC13ZWlnaHQ9ImJvbGQiIGxlbmd0aEFkanVzdD0ic3BhY2luZyIgdGV4dExlbmd0aD0iMTkuNSIgeD0iNTQiIHk9IjE3MTIuMDkzOCI+NDUuPC90ZXh0Pjx0ZXh0IGZpbGw9IiMwMDAwMDAiIGZvbnQtZmFtaWx5PSJzYW5zLXNlcmlmIiBmb250LXNpemU9IjEzIiBsZW5ndGhBZGp1c3Q9InNwYWNpbmciIHRleHRMZW5ndGg9IjExNyIgeD0iNzcuNSIgeT0iMTcxMi4wOTM4Ij42LiBTdWJtaXQgYSBSZXZpZXc8L3RleHQ+PC9nPjxnIGNsYXNzPSJtZXNzYWdlIiBkYXRhLXBhcnRpY2lwYW50LTE9IlVJIiBkYXRhLXBhcnRpY2lwYW50LTI9IkJhY2tlbmQiPjxwb2x5Z29uIGZpbGw9IiMxODE4MTgiIHBvaW50cz0iNzQ0LjUsMTczOS42MzI4LDc1NC41LDE3NDMuNjMyOCw3NDQuNSwxNzQ3LjYzMjgsNzQ4LjUsMTc0My42MzI4IiBzdHlsZT0ic3Ryb2tlOiMxODE4MTg7c3Ryb2tlLXdpZHRoOjE7Ii8+PGxpbmUgc3R5bGU9InN0cm9rZTojMTgxODE4O3N0cm9rZS13aWR0aDoxOyIgeDE9IjM0NSIgeDI9Ijc1MC41IiB5MT0iMTc0My42MzI4IiB5Mj0iMTc0My42MzI4Ii8+PHRleHQgZmlsbD0iIzAwMDAwMCIgZm9udC1mYW1pbHk9InNhbnMtc2VyaWYiIGZvbnQtc2l6ZT0iMTMiIGZvbnQtd2VpZ2h0PSJib2xkIiBsZW5ndGhBZGp1c3Q9InNwYWNpbmciIHRleHRMZW5ndGg9IjE5LjUiIHg9IjM1MiIgeT0iMTc0MC4wMDc4Ij40Ni48L3RleHQ+PHRleHQgZmlsbD0iIzAwMDAwMCIgZm9udC1mYW1pbHk9InNhbnMtc2VyaWYiIGZvbnQtc2l6ZT0iMTMiIGxlbmd0aEFkanVzdD0ic3BhY2luZyIgdGV4dExlbmd0aD0iMjUzLjUiIHg9IjM3NS41IiB5PSIxNzQwLjAwNzgiPjYuMS4gU2VuZCBSZXZpZXcgRGF0YSAocmF0aW5nLCBjb21tZW50KTwvdGV4dD48L2c+PGcgY2xhc3M9Im1lc3NhZ2UiIGRhdGEtcGFydGljaXBhbnQtMT0iQmFja2VuZCIgZGF0YS1wYXJ0aWNpcGFudC0yPSJEQiI+PHBvbHlnb24gZmlsbD0iIzE4MTgxOCIgcG9pbnRzPSIxMTY0LjUsMTc2Ny41NDY5LDExNzQuNSwxNzcxLjU0NjksMTE2NC41LDE3NzUuNTQ2OSwxMTY4LjUsMTc3MS41NDY5IiBzdHlsZT0ic3Ryb2tlOiMxODE4MTg7c3Ryb2tlLXdpZHRoOjE7Ii8+PGxpbmUgc3R5bGU9InN0cm9rZTojMTgxODE4O3N0cm9rZS13aWR0aDoxOyIgeDE9Ijc2Ni41IiB4Mj0iMTE3MC41IiB5MT0iMTc3MS41NDY5IiB5Mj0iMTc3MS41NDY5Ii8+PHRleHQgZmlsbD0iIzAwMDAwMCIgZm9udC1mYW1pbHk9InNhbnMtc2VyaWYiIGZvbnQtc2l6ZT0iMTMiIGZvbnQtd2VpZ2h0PSJib2xkIiBsZW5ndGhBZGp1c3Q9InNwYWNpbmciIHRleHRMZW5ndGg9IjE5LjUiIHg9Ijc3My41IiB5PSIxNzY3LjkyMTkiPjQ3LjwvdGV4dD48dGV4dCBmaWxsPSIjMDAwMDAwIiBmb250LWZhbWlseT0ic2Fucy1zZXJpZiIgZm9udC1zaXplPSIxMyIgbGVuZ3RoQWRqdXN0PSJzcGFjaW5nIiB0ZXh0TGVuZ3RoPSIyMzQiIHg9Ijc5NyIgeT0iMTc2Ny45MjE5Ij42LjEuMS4gRmluZCBHYW1lIGFuZCBQdXNoIE5ldyBSZXZpZXc8L3RleHQ+PC9nPjxnIGNsYXNzPSJtZXNzYWdlIiBkYXRhLXBhcnRpY2lwYW50LTE9IkRCIiBkYXRhLXBhcnRpY2lwYW50LTI9IkJhY2tlbmQiPjxwb2x5Z29uIGZpbGw9IiMxODE4MTgiIHBvaW50cz0iNzc3LjUsMTc5NS40NjA5LDc2Ny41LDE3OTkuNDYwOSw3NzcuNSwxODAzLjQ2MDksNzczLjUsMTc5OS40NjA5IiBzdHlsZT0ic3Ryb2tlOiMxODE4MTg7c3Ryb2tlLXdpZHRoOjE7Ii8+PGxpbmUgc3R5bGU9InN0cm9rZTojMTgxODE4O3N0cm9rZS13aWR0aDoxO3N0cm9rZS1kYXNoYXJyYXk6Mi4wLDIuMDsiIHgxPSI3NzEuNSIgeDI9IjExNzUuNSIgeTE9IjE3OTkuNDYwOSIgeTI9IjE3OTkuNDYwOSIvPjx0ZXh0IGZpbGw9IiMwMDAwMDAiIGZvbnQtZmFtaWx5PSJzYW5zLXNlcmlmIiBmb250LXNpemU9IjEzIiBmb250LXdlaWdodD0iYm9sZCIgbGVuZ3RoQWRqdXN0PSJzcGFjaW5nIiB0ZXh0TGVuZ3RoPSIxOS41IiB4PSI3ODMuNSIgeT0iMTc5NS44MzU5Ij40OC48L3RleHQ+PHRleHQgZmlsbD0iIzAwMDAwMCIgZm9udC1mYW1pbHk9InNhbnMtc2VyaWYiIGZvbnQtc2l6ZT0iMTMiIGxlbmd0aEFkanVzdD0ic3BhY2luZyIgdGV4dExlbmd0aD0iMTU2IiB4PSI4MDciIHk9IjE3OTUuODM1OSI+Ni4xLjIuIENvbmZpcm0gU2F2ZSAoT0spPC90ZXh0PjwvZz48ZyBjbGFzcz0ibWVzc2FnZSIgZGF0YS1wYXJ0aWNpcGFudC0xPSJCYWNrZW5kIiBkYXRhLXBhcnRpY2lwYW50LTI9IlVJIj48cG9seWdvbiBmaWxsPSIjMTgxODE4IiBwb2ludHM9IjM1NiwxODIzLjM3NSwzNDYsMTgyNy4zNzUsMzU2LDE4MzEuMzc1LDM1MiwxODI3LjM3NSIgc3R5bGU9InN0cm9rZTojMTgxODE4O3N0cm9rZS13aWR0aDoxOyIvPjxsaW5lIHN0eWxlPSJzdHJva2U6IzE4MTgxODtzdHJva2Utd2lkdGg6MTtzdHJva2UtZGFzaGFycmF5OjIuMCwyLjA7IiB4MT0iMzUwIiB4Mj0iNzYwLjUiIHkxPSIxODI3LjM3NSIgeTI9IjE4MjcuMzc1Ii8+PHRleHQgZmlsbD0iIzAwMDAwMCIgZm9udC1mYW1pbHk9InNhbnMtc2VyaWYiIGZvbnQtc2l6ZT0iMTMiIGZvbnQtd2VpZ2h0PSJib2xkIiBsZW5ndGhBZGp1c3Q9InNwYWNpbmciIHRleHRMZW5ndGg9IjE5LjUiIHg9IjM2MiIgeT0iMTgyMy43NSI+NDkuPC90ZXh0Pjx0ZXh0IGZpbGw9IiMwMDAwMDAiIGZvbnQtZmFtaWx5PSJzYW5zLXNlcmlmIiBmb250LXNpemU9IjEzIiBsZW5ndGhBZGp1c3Q9InNwYWNpbmciIHRleHRMZW5ndGg9IjIyNy41IiB4PSIzODUuNSIgeT0iMTgyMy43NSI+Ni4yLiBSZXR1cm4gVXBkYXRlZCBMaXN0IG9mIFJldmlld3M8L3RleHQ+PC9nPjxnIGNsYXNzPSJtZXNzYWdlIiBkYXRhLXBhcnRpY2lwYW50LTE9IlVJIiBkYXRhLXBhcnRpY2lwYW50LTI9IlVzZXIiPjxwb2x5Z29uIGZpbGw9IiMxODE4MTgiIHBvaW50cz0iNTgsMTg1MS4yODkxLDQ4LDE4NTUuMjg5MSw1OCwxODU5LjI4OTEsNTQsMTg1NS4yODkxIiBzdHlsZT0ic3Ryb2tlOiMxODE4MTg7c3Ryb2tlLXdpZHRoOjE7Ii8+PGxpbmUgc3R5bGU9InN0cm9rZTojMTgxODE4O3N0cm9rZS13aWR0aDoxOyIgeDE9IjUyIiB4Mj0iMzM5IiB5MT0iMTg1NS4yODkxIiB5Mj0iMTg1NS4yODkxIi8+PHRleHQgZmlsbD0iIzAwMDAwMCIgZm9udC1mYW1pbHk9InNhbnMtc2VyaWYiIGZvbnQtc2l6ZT0iMTMiIGZvbnQtd2VpZ2h0PSJib2xkIiBsZW5ndGhBZGp1c3Q9InNwYWNpbmciIHRleHRMZW5ndGg9IjE5LjUiIHg9IjY0IiB5PSIxODUxLjY2NDEiPjUwLjwvdGV4dD48dGV4dCBmaWxsPSIjMDAwMDAwIiBmb250LWZhbWlseT0ic2Fucy1zZXJpZiIgZm9udC1zaXplPSIxMyIgbGVuZ3RoQWRqdXN0PSJzcGFjaW5nIiB0ZXh0TGVuZ3RoPSIxODIiIHg9Ijg3LjUiIHk9IjE4NTEuNjY0MSI+Ni4zLiBEaXNwbGF5IFVwZGF0ZWQgUmV2aWV3czwvdGV4dD48L2c+PCEtLVNSQz1bWkxUSFItOTY0N3h0aHpYSWdPM1FhNXVJa0JRd0gyOEdTZ1ZjYVpHYUxyTmdvczhGUFhrcFRkVk5JTVhyX3hxcGtzalpPb1VLMXVKaVJzUGRsZmR2UGtjb2dVMm51Y2pzQnFtMldRNWxEYWNKWDJ6SW5PcjhQT2F1TzlUeTNNb1VJV2M2ekh1cUFGT3o2cVRoOFZqMXE2THBpcTdSMnhkWUNlR3JJQUMzX0lYYW5pYU9sdXE4SFNRYk9WeTYzM19kRjdvQ0xQaEIyOHpCNVJpSXlTZ1M5cGN1andjQUdCYXR6azdOWVpDVTZkcHlYZmpCMUkwUlZqcEpnZ0U4Nnh4VzZqeG96R1NhSVZoU1M3UVprOHBoT01kdUVtVkN0Tmt4SDRfUEgtMWVDYWtiU01SVjNrdDcwZ3g0NGd3NFhBaFJ1bHJOT2xIMnlXTElvZEVKaGg0TThMaTlLNW81QW43b1hDYnlsRzBiUENvTVExWk1RZ1FmNVc0UEVYSmhWNVlTX0padVNCV3V3djNkQUlwbk8zT2M4Wk5aQ2NBdHNtOWZyaGpQXzBNWG1JSFpCaUtfcmNTX1NCSEp0VnJGTV9rV01qaEU3VTBoemwzZkp6Y1JBU21RUERKbENBeG5LSHJ1eVA4ZnFEZm9aWTM0cHE0eldOOWVfdEo3el9adElwUS05VHlOQm1RS0gxQjhJOEpXaDBXR2IzTmpWNHZiZDR4RnNUV2FOQUZIckJ6bnVFYnY0OW9VaWV5ZnpsR2padTdEaUNwaXozSW1aTnJtWFg2cE56WXgwUmw5RzZ2WGJCZnV1V09lOHVHV3FDUDVLMEpGbThHaFRneW1VQWVDSk9wc0M4bzRHNFM1UTl4N0NNVzNLR3JiSm9WU3lHMGRKc1M5dHhaM2R1TFBVTUc0ckkwZVl3aXE1bDltQmNBUFAtczl1QjZKSDhJRkRNWEJDZnZ2UXU3dnBFZHRINDY0eW9udWVoU01IT2FBV285M0NhRjNCcG1INFU0RXNQbV9HVGFzcFhaOUhfMTF1cG9DeVd2Q2hZSW80dVJPN3VTcEJmOVNHSkxkRDJ1RnRRUTdma0ZTaDBoM2dhNEhRZXRYOHM5dWxhQWdhOTRPZVdFMVhuZzRqejB4WmJvSHNnYWJGd3dNWjNqTzN6YjJXQ0pWX0pTdkZZUWc5WWwwa2VZYml4cnU0SGY3NEFGMUZGVW9WVXBPX1lxN2pSNHc0OUVGblNRVVZRWUpGMHUyZFhaZFVmbWViQUVERnk5Z0tBQ0FwazZ4aVd1TU14SG9nUEJENDkzLVh5bU1sQ2taMkFCcEpQU2oxSUlIUXpuU3F4bnczd3lTWVpuRUtoYUtRa3JUMVAzVzdEbEdmb2JlVGZxUTV5ems3N3UyWnVpRUdYdE1Ga1NmNkVtV3BQT2dOUER1TTVEWWY1MEpYRWlpYlA1c1dQOThNMG56QkFPUHdiNjU3dFQ4clFZRDd6a1VUV3U4b2FwQWtoVEU4a240VC10QUhTTDVkSXR6akI5cUw2TmZhcUhNN0hjTWdKQWJjS3FQay00d1RHVkVRQWFyOHpuc0M3YS02SDMzT2hjWFgtY0lCVnRlNU1RcnlONGNtbTZ4SE04cE90bGxDdlN2UU5BLU0wa2pneGRpcDBrUFpXUXV0c1hBUWNMb0JmQkRwZzZ4OUJwdG9rSEZfQno1LTZkV0VJaUNCSmIyRGtnbmhtV19qblMxRVF1RHdKUlo4bl9tVlNnbkNvdERrQ0pqaGt2ckI2NjZEVzZub0JEQ2ZLeXktUVJKdG9qWW56S3JLVk13QXM5RW5OMVRpeDV0TnNnUFVybzRZYXRtSE1YWEZGZ0xiUlZidXlKRFdma3VzemhRc29qVTl1RkFwaUlna21kS0FDQXZGa3JjcGJjdGtJYkVRZmtZVFlYVWdiMFU2V0t1OE5wMUtzNVdlSXFDRG5YMVpYcmhHM0RyMV9Qa3ZBSS1YT3lKTnNlbFh2d1I5WGlhR2pNSU9GMmxRWW52SFFQZTNyNmxVajQ4SXo1V0pZZ1RFblZXN2N6UmxOUHlNeF9BTWFCS2ZWTXBDbjRLU2FpYlhXdEhSWTVfTDFQaHhDOTVwU3FKeXRmeGtxSjh6RnNzUllNWGt4UC1JelU0djNsNEZHYnVya3F4VXFYNUloUHJQMUVrZWpWbFRpRGpkenU5XzJmRXdVN005aTU1Mkc3eWF1Skt6UWt0bFU3c2piVEFiQnJqNXg3UGhPSHhsWlJLbV85Y0tpa2VPaFVSVjJzcnFTMGZDQU5jeTZ5RXlBWXl2WmNtMng5N1ZvSGFfMEZzczloLW9fTnRKX0Y4SnhFR19oOWFfclJhVWlNa3FRa0ZmRDUxOHBWQkhHX1A3VGN4LVJOVlJBREhQVVBUQXFIc1g2YkxqVjNJZ2ZVWmdidU1KYmY5X0d5MF0tLT48L2c+PC9zdmc+;" vertex="1" parent="1">
            <mxGeometry x="-3280" y="1650" width="1262" height="1965" as="geometry" />
          </mxCell>
        </UserObject>
      </root>
    </mxGraphModel>
  </diagram>
</mxfile>
